SplineFontDB: 3.2
FontName: GrotesquerieLight
FullName: Grotesquerie Light
FamilyName: Grotesquerie Light
Weight: Light
Copyright: Copyright (c) 2021, RandomMaerks. All rights reserved.
UComments: "2021-6-15: Created with FontForge (http://fontforge.org)"
Version: 001.000
ItalicAngle: 0
UnderlinePosition: -100
UnderlineWidth: 50
Ascent: 800
Descent: 200
InvalidEm: 0
LayerCount: 2
Layer: 0 0 "Back" 1
Layer: 1 0 "Fore" 0
XUID: [1021 301 932173752 21058]
StyleMap: 0x0000
FSType: 0
OS2Version: 0
OS2_WeightWidthSlopeOnly: 0
OS2_UseTypoMetrics: 1
CreationTime: 1623766696
ModificationTime: 1690512374
PfmFamily: 17
TTFWeight: 700
TTFWidth: 5
LineGap: 90
VLineGap: 0
OS2TypoAscent: 0
OS2TypoAOffset: 1
OS2TypoDescent: 0
OS2TypoDOffset: 1
OS2TypoLinegap: 90
OS2WinAscent: 0
OS2WinAOffset: 1
OS2WinDescent: 0
OS2WinDOffset: 1
HheadAscent: 0
HheadAOffset: 1
HheadDescent: 0
HheadDOffset: 1
OS2Vendor: 'PfEd'
Lookup: 4 0 1 "'liga' Standard Ligatures in Latin lookup 0" { "'liga' Standard Ligatures in Latin lookup 0-1"  } ['liga' ('DFLT' <'dflt' > 'latn' <'dflt' > ) ]
Lookup: 258 0 0 "'kern' Horizontal Kerning in Latin lookup 0" { "'kern' Horizontal Kerning in Latin lookup 0-1" [150,15,2] } ['kern' ('DFLT' <'dflt' > 'latn' <'dflt' > ) ]
MarkAttachClasses: 1
DEI: 91125

StartChar: g
Encoding: 103 103 0
Width: 786
Flags: HW
HStem: 23 147.768<196.542 345.232> 454.785 185.215<208.772 334.131>
VStem: -0.0139063 155.167<213.143 391.672> 390.376 159.295<215.398 391.587>
LayerCount: 2
Fore
SplineSet
-0.013671875 294.879882812 m 0
 -2.3623046875 464.055664062 98.68359375 613 274 613 c 0
 348.317382812 613 437.99609375 584 480.766601562 527.041992188 c 1
 509.346679688 593.775390625 577.162109375 662.435546875 639 675 c 1
 686 618 l 1
 601.506835938 609.245117188 546.009765625 553.443359375 509.956054688 472.21875 c 1
 535.924804688 423.250976562 549.670898438 358.11328125 549.670898438 296.411132812 c 0
 549.670898438 127.21875 442.317382812 23 267 23 c 0
 230.000976562 23 180.473632812 36.5771484375 151 47 c 1
 -40.00390625 -226 344.505859375 -121.751953125 477.747070312 -90.0205078125 c 0
 649.99609375 -49 684.723632812 -119.541992188 686 -121 c 1
 686 -191 l 1
 631 -113 524 -149.459960938 332 -189 c 0
 221.506835938 -211.754882812 -99.2392578125 -232.8671875 90 78 c 1
 92.5556640625 76.8125 l 1
 35.34765625 133.296875 1.072265625 216.6640625 -0.013671875 294.879882812 c 0
58.3271484375 305.212890625 m 0
 58.3271484375 162.376953125 145.627929688 92.4091796875 279.919921875 92.4091796875 c 0
 414.2109375 92.4091796875 492.375976562 162.669921875 492.375976562 305.5078125 c 0
 492.375976562 448.341796875 417.2109375 549.55859375 282.919921875 549.55859375 c 0
 148.627929688 549.55859375 58.3271484375 448.05078125 58.3271484375 305.212890625 c 0
EndSplineSet
EndChar

StartChar: a
Encoding: 97 97 1
Width: 665
Flags: HW
HStem: -0.145508 156.574<184.927 403.127> 259.085 137.06<209.226 371.676>
VStem: -0.397657 174.157<169.344 230.085> 453.001 152<355.106 436.098>
LayerCount: 2
Fore
SplineSet
54 524 m 1
 351.083007812 669.564453125 539 620 553 453 c 1
 565 1 565 0 565 0 c 2
 504 0 l 1
 503.671875 73.9013671875 l 1
 468 19 391.67578125 -0.1455078125 279.53515625 -0.1455078125 c 0
 102.174804688 -0.1455078125 -0.3984375 64.3017578125 -0.3984375 186.091796875 c 0
 -0.3984375 307.881835938 102.174804688 396.14453125 279.53515625 396.14453125 c 0
 343.028320312 396.14453125 456.508789062 373.126953125 498 353 c 1
 501 552 414 614 54 464 c 1
 54 524 l 1
56.6455078125 189.963867188 m 0
 58.388671875 80.8603515625 147.961914062 60.3056640625 286.499023438 60.3056640625 c 0
 425.032226562 60.3056640625 504.6875 98.98046875 504 189 c 0
 503 320 378.198242188 329.513671875 292 331 c 0
 176 333 55 293 56.6455078125 189.963867188 c 0
EndSplineSet
EndChar

StartChar: n
Encoding: 110 110 3
Width: 586
Flags: HW
LayerCount: 2
Fore
SplineSet
0 608 m 1
 0 0 l 1
 58 0 l 1
 56.4248046875 396.202148438 l 1
 60 537 418 652 422 443 c 5
 422.342773438 443.068359375 l 5
 427 0 l 1
 486 0 l 1
 482 404 l 6
 480.575195312 547.946289062 432 608 329 612 c 0
 233.139648438 615.72265625 118.272460938 595.400390625 55.6103515625 505.265625 c 1
 55 608 l 1
 0 608 l 1
EndSplineSet
EndChar

StartChar: i
Encoding: 105 105 4
Width: 180
Flags: HW
HStem: 0 21G<-29.7651 143.235> 588 20G<-29.7651 143.235> 658.005 167.945<-7.31452 106.946>
VStem: -37.103 173.837<687.311 796.644> -29.7651 173<0 608>
LayerCount: 2
Fore
SplineSet
0.4697265625 735.583007812 m 4xf0
 0.4697265625 756.4765625 17.994140625 774 40.2353515625 774 c 4
 62.4765625 774 80 756.4765625 80 735.583007812 c 4
 80 714.689453125 62.4765625 697.165039062 40.2353515625 697.165039062 c 4
 17.994140625 697.165039062 0.4697265625 714.689453125 0.4697265625 735.583007812 c 4xf0
12.2353515625 608 m 1xe8
 69.2353515625 608 l 1
 69.2353515625 0 l 1
 12.2353515625 0 l 1
 12.2353515625 608 l 1xe8
EndSplineSet
EndChar

StartChar: r
Encoding: 114 114 5
Width: 492
Flags: HW
LayerCount: 2
Fore
SplineSet
0 608 m 1
 0 0 l 1
 62 0 l 1
 59.279296875 400.852539062 l 1
 84.451171875 524.999023438 305 602 391 509 c 1
 392 584 l 1
 369.40625 595.56640625 329.735351562 608.03125 298 609 c 0
 203.65234375 612.170898438 117.6171875 571.489257812 57.9931640625 487.219726562 c 1
 57 608 l 1
 0 608 l 1
EndSplineSet
EndChar

StartChar: h
Encoding: 104 104 6
Width: 590
Flags: HW
LayerCount: 2
Fore
SplineSet
0 800 m 1
 0 0 l 1
 58 0 l 1
 56.4248046875 393.202148438 l 1
 62.7841796875 548.918945312 420 620 426 440 c 1
 426.342773438 440.068359375 l 1
 431 0 l 1
 490 0 l 1
 486 404 l 2
 484.959960938 509 439.680664062 596.024414062 309 606 c 0
 178 616 106 564 55.6103515625 505.265625 c 1
 55 800 l 1
 0 800 l 1
EndSplineSet
EndChar

StartChar: m
Encoding: 109 109 7
Width: 966
Flags: HW
LayerCount: 2
Fore
SplineSet
472 0 m 1
 468.487304688 411.775390625 l 1
 496.763710783 551.493755413 800.3944621 620.912210385 802.342773438 438.068359375 c 2
 807 1 l 1
 866 1 l 1
 862 405 l 2
 860.959960938 510 825.987304688 605.59765625 695 610 c 0
 603.109375 613.088867188 516.270507812 594.561523438 452.922851562 497.081054688 c 1
 429.774414062 564.388671875 372.3046875 605.211914062 281 608 c 0
 185.111328125 610.927734375 123.272460938 574.400390625 60.6103515625 484.265625 c 1
 60 608 l 1
 0 608 l 1
 0 0 l 1
 58 0 l 1
 56.4248046875 387.202148438 l 1
 65.4052734375 544.78125 403 637 409 434 c 1
 414 0 l 1
 472 0 l 1
EndSplineSet
EndChar

StartChar: o
Encoding: 111 111 8
Width: 650
Flags: HW
HStem: 0 168.064<212.86 330.338> 436.887 177.113<215.232 327.056>
VStem: 0.31543 168.715<216.194 387.161> 375.579 174.421<218.202 383.766>
LayerCount: 2
Fore
SplineSet
550 296.411132812 m 0
 550 127.21875 442.646484375 0 267.329101562 0 c 0
 96.583984375 0 0.3154296875 126.256835938 0.3154296875 294.879882812 c 0
 0.3154296875 464.072265625 96.0126953125 614 271.329101562 614 c 0
 443.350585938 614 550 469.565429688 550 296.411132812 c 0
58.5283203125 295.737304688 m 0
 58.5283203125 159.821289062 143.491210938 56.4267578125 268 56.4267578125 c 0
 392.509765625 56.4267578125 487.905273438 162.05078125 487.905273438 297.96875 c 0
 487.905273438 433.883789062 395.509765625 549.5 271 549.5 c 0
 146.491210938 549.5 58.5283203125 431.655273438 58.5283203125 295.737304688 c 0
EndSplineSet
EndChar

StartChar: j
Encoding: 106 106 9
Width: 209
Flags: HW
HStem: 588 20G<101 272> 657.811 164.97<119.236 234.526>
VStem: 91.502 170.758<685.11 795.48> 101 171<0.354584 608>
LayerCount: 2
Fore
SplineSet
29.4697265625 735.583007812 m 0
 29.4697265625 756.4765625 46.994140625 774 69.2353515625 774 c 0
 91.4765625 774 109 756.4765625 109 735.583007812 c 0
 109 714.689453125 91.4765625 697.165039062 69.2353515625 697.165039062 c 0
 46.994140625 697.165039062 29.4697265625 714.689453125 29.4697265625 735.583007812 c 0
41.2353515625 608 m 1
 98.2353515625 608 l 1
 98.2353515625 16 l 1
 97.9189453125 16 l 1
 97.3544921875 -128.098632812 100.354492188 -197.0703125 0 -199 c 1
 0 -140 l 1
 45 -141 40 -105 41.49609375 16 c 1
 41.2353515625 16 l 1
 41.2353515625 608 l 1
EndSplineSet
EndChar

StartChar: b
Encoding: 98 98 10
Width: 627
Flags: HW
HStem: 0 171.245<163.6 309.083>
VStem: -77.419 176.91<232.584 369.396> 368.086 145.495<233.019 375.129>
LayerCount: 2
Fore
SplineSet
61.5068359375 302.532226562 m 4
 63.3623046875 507.029296875 201.411132812 553.669921875 291.9375 550 c 4
 439.9375 544 469.983398438 370.412109375 469.1015625 306.694335938 c 4
 465.9375 78 351.655273438 59.1611328125 287.9375 58.2451171875 c 4
 181.217773438 56.7099609375 59.5966796875 92 61.5068359375 302.532226562 c 4
526.596679688 306 m 4
 522.96875 417.102539062 478.596679688 596 301.596679688 608 c 4
 205.883789062 614.489257812 83.1103515625 560 57.5966796875 480 c 5
 57.5966796875 800 l 5
 -0.4033203125 800 l 5
 -0.4033203125 0 l 5
 60.5966796875 0 l 5
 59.5966796875 92 l 5
 93.5966796875 31 184.366210938 0 287.596679688 0 c 4
 422.596679688 0 534.596679688 61 526.596679688 306 c 4
EndSplineSet
EndChar

StartChar: u
Encoding: 117 117 11
Width: 586
Flags: HW
LayerCount: 2
Fore
SplineSet
486 0 m 5
 486 608 l 5
 428 608 l 5
 429.575195312 211.797851562 l 5
 426 89 68 -44 64 165 c 5
 63.6572265625 164.931640625 l 5
 59 608 l 5
 0 608 l 5
 4 204 l 6
 5.4248046875 60.0537109375 54 0 157 -4 c 4
 252.860351562 -7.72265625 367.727539062 12.599609375 430.389648438 102.734375 c 5
 431 0 l 5
 486 0 l 5
EndSplineSet
EndChar

StartChar: e
Encoding: 101 101 12
Width: 708
Flags: HW
HStem: -1 158<226.935 505.892> 446.412 178.588<227.134 371.04>
LayerCount: 2
Fore
SplineSet
605.279296875 248.639648438 m 5
 607.083007812 263.493164062 608 279.772460938 608 295.411132812 c 4
 608 468.565429688 470.350585938 625 298.329101562 625 c 4
 123.012695312 625 0.3154296875 463.072265625 0.3154296875 293.879882812 c 4
 0.3154296875 125.256835938 158.083007812 3.876953125 294.329101562 -1 c 4
 434 -6 528.329101562 27 565.329101562 54 c 5
 566.329101562 123 l 5
 496 85 408 57 328.329101562 57 c 4
 173.883789062 57 75 167 62.6865234375 249 c 5
 584.240234375 249 l 5
 605.279296875 248.639648438 l 5
63 313 m 5
 66 419 150 565 298 564 c 4
 460.3046875 562.903320312 543 406 544 311 c 5
 63 313 l 5
EndSplineSet
EndChar

StartChar: v
Encoding: 118 118 13
Width: 681
Flags: HW
HStem: 0 21G<220.5 426.711> 588 20G<0 193.518 427.982 624>
LayerCount: 2
Fore
SplineSet
0 608 m 5
 57 608 l 5
 326 60 l 5
 523 608 l 5
 581 608 l 5
 361 0 l 5
 294 0 l 5
 0 608 l 5
EndSplineSet
EndChar

StartChar: s
Encoding: 115 115 14
Width: 684
Flags: HW
LayerCount: 2
Fore
SplineSet
3 441 m 1
 0.1103515625 213 527.110351562 296 525 182 c 1
 506 17 173 38 -0 134 c 1
 -0 54 l 1
 156.110351562 -6 264.880859375 -2.70703125 330 -2 c 0
 514.110351562 0 583.944335938 101.994140625 584 192 c 0
 584.110351562 372 72.1103515625 277 66.1103515625 435 c 1
 76.1103515625 620 476.110351562 548.5 560 487 c 1
 561 551 l 1
 488.858398438 583.271484375 390 616 282 616 c 1
 123.055664062 609.859375 7.873046875 546.516601562 3.1259765625 440.978515625 c 1
 3 441 l 1
EndSplineSet
EndChar

StartChar: c
Encoding: 99 99 15
Width: 650
Flags: HW
HStem: 0 162.108<251.212 475.696> 430.963 184.037<231.376 453.431>
VStem: -0.0136719 180.014<226.489 386.945>
LayerCount: 2
Fore
SplineSet
543 544 m 1
 543 471 l 1
 543 471 430 560 286.091796875 553.962890625 c 0
 184.084454044 549.683568999 72 510 64 291 c 1
 72 136 142 58.5 323.091796875 58.1083984375 c 0
 487.05078125 57.75390625 533.435546875 119.329101562 550 125 c 1
 550 55 l 1
 511 32 488 -5 267 0 c 0
 96.298565271 3.86202341016 -0.013671875 126.256835938 -0.013671875 294.879882812 c 0
 -0.013671875 464.072265625 97.8443771594 614.49333045 273 622 c 0
 413 628 512 568 543 544 c 1
503.276367188 28.4658203125 m 1025
EndSplineSet
EndChar

StartChar: d
Encoding: 100 100 16
Width: 627
Flags: HW
HStem: 1 171.245<201.502 346.985> 781 20G<428.004 588.004>
VStem: -2.99622 145.495<234.019 370.967> 411.094 176.91<233.584 368.21> 428.004 160<1 104 508 801>
LayerCount: 2
Fore
SplineSet
465.09375 302.532226562 m 4
 463.23828125 507.029296875 325.189453125 553.669921875 234.663085938 550 c 4
 86.6630859375 544 56.6171875 370.412109375 57.4990234375 306.694335938 c 4
 60.6630859375 78 174.9453125 59.1611328125 238.663085938 58.2451171875 c 4
 345.3828125 56.7099609375 467.00390625 92 465.09375 302.532226562 c 4
0.00390625 306 m 4
 3.6318359375 417.102539062 48.00390625 596 225.00390625 608 c 4
 320.716796875 614.489257812 443.490234375 560 469.00390625 480 c 5
 469.00390625 800 l 5
 527.00390625 800 l 5
 527.00390625 0 l 5
 466.00390625 0 l 5
 467.00390625 92 l 5
 433.00390625 31 342.234375 0 239.00390625 0 c 4
 104.00390625 0 -7.99609375 61 0.00390625 306 c 4
EndSplineSet
EndChar

StartChar: f
Encoding: 102 102 17
Width: 635
Flags: HW
HStem: 0 21G<146 315> 444 164.53<0 146 316.925 535>
VStem: 146 169<0 444 608.741 669.312>
LayerCount: 2
Fore
SplineSet
535 608 m 1
 535 548 l 1
 245.204101562 548 l 1
 246 0 l 1
 190 0 l 1
 190 548 l 1
 0 548 l 1
 0 609 l 1
 190 608.741210938 l 1
 190 800 384 938 494 813 c 1
 494 750 l 5
 374 894 246 734 243.924804688 608.530273438 c 1
 535 608 l 1
EndSplineSet
EndChar

StartChar: k
Encoding: 107 107 18
Width: 681
Flags: HW
HStem: 0 21G<0 168 408.92 637> 588 20G<393.224 637> 781 20G<0 168>
VStem: 0 168<0 256.689 419.026 801>
LayerCount: 2
Fore
SplineSet
477 608 m 1
 581 608 l 1
 174 380 l 1
 563 0 l 1
 479 0 l 1
 121 359 l 1
 56.4248046875 320.202148438 l 1
 58 0 l 1
 0 0 l 1
 0 800 l 1
 55 800 l 1
 55.6103515625 375.265625 l 1
 477 608 l 1
EndSplineSet
EndChar

StartChar: l
Encoding: 108 108 19
Width: 157
Flags: HW
HStem: 0 21G<-12.2356 161.764> 780 20G<-12.2356 161.764>
VStem: -12.2356 174<0 800>
LayerCount: 2
Fore
SplineSet
0 800 m 1xe8
 57 800 l 1
 57 0 l 1
 0 0 l 1
 0 800 l 1xe8
EndSplineSet
EndChar

StartChar: p
Encoding: 112 112 20
Width: 627
Flags: HW
HStem: 438.755 184.245<240.273 385.756> 590 20G<-0.745528 162.254>
VStem: -0.745528 176.91<241.151 377.416> -0.745528 160<-190 103 507 610> 444.759 145.495<240.033 377.414>
LayerCount: 2
Fore
SplineSet
61.5068359375 305.467773438 m 4
 63.3623046875 100.970703125 201.411132812 54.330078125 291.9375 58 c 4
 439.9375 64 469.983398438 237.587890625 469.1015625 301.305664062 c 4
 465.9375 530 351.655273438 548.838867188 287.9375 549.754882812 c 4
 181.217773438 551.290039062 59.5966796875 516 61.5068359375 305.467773438 c 4
526.596679688 302 m 4
 522.96875 190.897460938 478.596679688 12 301.596679688 0 c 4
 205.883789062 -6.4892578125 83.1103515625 48 57.5966796875 128 c 5
 57.5966796875 -192 l 5
 -0.4033203125 -192 l 5
 -0.4033203125 608 l 5
 60.5966796875 608 l 5
 59.5966796875 516 l 5
 93.5966796875 577 184.366210938 608 287.596679688 608 c 4
 422.596679688 608 534.596679688 547 526.596679688 302 c 4
EndSplineSet
EndChar

StartChar: q
Encoding: 113 113 21
Width: 627
Flags: HW
HStem: 436.755 184.245<205.498 350.981>
VStem: 1.00011 145.495<232.625 375.414> 415.09 176.91<238.331 375.416>
LayerCount: 2
Fore
SplineSet
465.08984375 305.467773438 m 4
 463.234375 100.970703125 325.185546875 54.330078125 234.659179688 58 c 4
 86.6591796875 64 56.61328125 237.587890625 57.4951171875 301.305664062 c 4
 60.6591796875 530 174.94140625 548.838867188 238.659179688 549.754882812 c 4
 345.37890625 551.290039062 467 516 465.08984375 305.467773438 c 4
0 302 m 4
 3.6279296875 190.897460938 48 12 225 0 c 4
 320.712890625 -6.4892578125 443.486328125 48 469 128 c 5
 469 -192 l 5
 527 -192 l 5
 527 608 l 5
 466 608 l 5
 467 516 l 5
 433 577 342.23046875 608 239 608 c 4
 104 608 -8 547 0 302 c 4
EndSplineSet
EndChar

StartChar: t
Encoding: 116 116 22
Width: 646
Flags: HW
HStem: 444 164<0 132 297 546> 781 20G<132 297>
VStem: 132 165<166.023 444 608 801>
LayerCount: 2
Fore
SplineSet
189 801 m 1
 247 801 l 1
 247 608 l 1
 546 608 l 1
 546 548 l 1
 247 548 l 1
 247 150 l 1
 247 144.568359375 l 2
 247 71.5 354 0 488 125 c 1
 488 43 l 1
 386 -15 198 -34 189 154.5 c 1
 189 548 l 1
 0 548 l 1
 0 608 l 1
 189 608 l 1
 189 801 l 1
EndSplineSet
EndChar

StartChar: w
Encoding: 119 119 23
Width: 1215
Flags: HW
HStem: 0 21G<-1058.5 -852.289 -577.5 -371.289> 588 20G<-1279 -1086.31 -828.26 -617.688 -349.165 -174>
LayerCount: 2
Fore
SplineSet
0 608 m 1
 57 608 l 1
 326 60 l 1
 523 608 l 1
 581 608 l 1
 580.637695312 607 l 1
 591 607 l 1
 860 59 l 1
 1057 607 l 1
 1115 607 l 1
 895 -1 l 1
 828 -1 l 1
 560.676757812 551.833007812 l 1
 361 0 l 1
 294 0 l 1
 0 608 l 1
EndSplineSet
EndChar

StartChar: x
Encoding: 120 120 24
Width: 682
Flags: HW
LayerCount: 2
Fore
SplineSet
1 608 m 1
 69 608 l 1
 303 345 l 1
 518 608 l 1
 582 608 l 1
 339.0390625 303.3828125 l 1
 581 0 l 1
 514 0 l 1
 302 262 l 1
 66 0 l 1
 0 0 l 1
 265.303710938 305.982421875 l 1
 1 608 l 1
EndSplineSet
EndChar

StartChar: y
Encoding: 121 121 25
Width: 681
Flags: HW
HStem: 588 20G<0 186.977 451.692 624>
LayerCount: 2
Fore
SplineSet
361 17 m 1
 581 608 l 1
 516 608 l 1
 326 85 l 1
 65 608 l 1
 0 608 l 1
 294 17 l 1
 304 17 l 1
 214 -212 48 -102 0 -70 c 1
 0 -133 l 1
 117 -204 244.072265625 -266.740234375 361 17 c 1
EndSplineSet
EndChar

StartChar: z
Encoding: 122 122 26
Width: 710
Flags: HW
LayerCount: 2
Fore
SplineSet
0 608 m 1
 0 548.5 l 1
 540 548.5 l 1
 0 53.5 l 5
 0 0 l 1
 610 0 l 1
 610 57.5 l 5
 75 57.5 l 5
 610 554.5 l 1
 610 608 l 1
 0 608 l 1
EndSplineSet
EndChar

StartChar: comma
Encoding: 44 44 27
Width: 180
Flags: HWO
HStem: -68 49.999<0.469727 71.1878> 2.625 173.75<14.4518 73.4697>
VStem: -16.5293 179.999<30.2392 145.393>
LayerCount: 2
Fore
SplineSet
0 38 m 0
 0 59 18 76 40 76 c 0
 62 76 80 59 80 38 c 0
 80 7 80 -58 0 -58 c 1
 0 -28 l 1
 35 -30 40 0 40 -0 c 1
 18 0 0 17 0 38 c 0
EndSplineSet
EndChar

StartChar: period
Encoding: 46 46 28
Width: 180
Flags: HW
HStem: 1.625 173.75<14.5125 132.549>
VStem: -16.4695 180<29.0439 144.393>
LayerCount: 2
Fore
SplineSet
0 38 m 4xf0
 0 58.8935546875 17.5244140625 76.4169921875 39.765625 76.4169921875 c 4
 62.0068359375 76.4169921875 79.5302734375 58.8935546875 79.5302734375 38 c 4
 79.5302734375 17.1064453125 62.0068359375 -0.41796875 39.765625 -0.41796875 c 4
 17.5244140625 -0.41796875 0 17.1064453125 0 38 c 4xf0
EndSplineSet
EndChar

StartChar: exclam
Encoding: 33 33 29
Width: 182
Flags: HW
HStem: -9.5 174.5<21.982 138.957> 780 20G<0 158>
VStem: -9 180<19.1754 134.018> 0 158<620.435 800> 23 117<210 389.565>
LayerCount: 2
Fore
SplineSet
0.234375 37.5830078125 m 0xf0
 0.234375 58.4765625 17.7587890625 76 40 76 c 0
 62.2412109375 76 79.7646484375 58.4765625 79.7646484375 37.5830078125 c 0
 79.7646484375 16.689453125 62.2412109375 -0.8349609375 40 -0.8349609375 c 0
 17.7587890625 -0.8349609375 0.234375 16.689453125 0.234375 37.5830078125 c 0xf0
23 210 m 1xc8
 0 800 l 1
 82 800 l 1xd0
 64 210 l 1
 23 210 l 1xc8
EndSplineSet
EndChar

StartChar: slash
Encoding: 47 47 30
Width: 530
Flags: W
HStem: 0 21G<5.97363 205.623> 780 20G<277.002 464.951>
LayerCount: 2
Fore
SplineSet
283.951171875 800 m 5
 464.951171875 800 l 5
 198.973632812 0 l 5
 5.9736328125 0 l 5
 283.951171875 800 l 5
EndSplineSet
Validated: 1
EndChar

StartChar: question
Encoding: 63 63 31
Width: 609
Flags: HW
HStem: -14.75 173.75<166.982 285.018>
VStem: 136 180<12.6689 128.018> 339 175<496.192 629.515>
LayerCount: 2
Fore
SplineSet
182.469726562 38 m 0xf0
 182.469726562 58.8935546875 199.994140625 76.4169921875 222.235351562 76.4169921875 c 0
 244.4765625 76.4169921875 262 58.8935546875 262 38 c 0
 262 17.1064453125 244.4765625 -0.41796875 222.235351562 -0.41796875 c 0
 199.994140625 -0.41796875 182.469726562 17.1064453125 182.469726562 38 c 0xf0
0.3916015625 725 m 1
 0 646 l 1
 236 812 443.58984375 741.103515625 442 566 c 1
 440 465 184.608398438 355 187 194 c 1
 263 194 l 1
 276.608398438 353 514 412 514 572 c 1
 502 904 141.84375 823.767578125 0.3916015625 725 c 1
EndSplineSet
EndChar

StartChar: less
Encoding: 60 60 32
Width: 595
Flags: W
HStem: 588 20G<445.803 492>
LayerCount: 2
Fore
SplineSet
492 608 m 29
 492 468.5 l 5
 186 336 l 29
 495 199 l 29
 495 73 l 5
 0 273 l 29
 0 395 l 5
 492 608 l 29
EndSplineSet
Validated: 1
EndChar

StartChar: greater
Encoding: 62 62 33
Width: 594
Flags: W
LayerCount: 2
Fore
SplineSet
0 609 m 25
 0 469.5 l 1
 308 337 l 25
 0 200 l 25
 0 74 l 1
 494 274 l 25
 494 396 l 1
 0 609 l 25
EndSplineSet
Validated: 9
EndChar

StartChar: parenleft
Encoding: 40 40 34
Width: 488
Flags: W
HStem: 0 21G<131 387.739>
LayerCount: 2
Fore
SplineSet
380 799 m 1
 382 630 l 1
 122 596 120 199 386 153.5 c 1
 388 0 l 17
 -126 44 -118 773 380 799 c 1
EndSplineSet
Validated: 33
EndChar

StartChar: parenright
Encoding: 41 41 35
Width: 480
Flags: W
LayerCount: 2
Fore
SplineSet
0.4765625 800 m 1
 0.4765625 670 l 1
 0.48338024552 670 0.490197848048 669.997793491 0.497015307585 669.997793491 c 1
 0 628 l 1
 260 594 262 197 -4 151.5 c 1
 -6 -2 l 1
 57.3220371242 3.42056348923 112.721724322 19.2373141429 160.258892569 42.8550881086 c 0
 504.00332659 207.130099378 439.76086427 777.065478455 0.4765625 800 c 1
EndSplineSet
Validated: 41
EndChar

StartChar: braceleft
Encoding: 123 123 36
Width: 440
Flags: W
HStem: -1 21G<218.047 340> 780 20G<240.5 340>
LayerCount: 2
Fore
SplineSet
340 611 m 5
 258 613 271 411 188 411 c 5
 297 385 283 165.5 340 164.5 c 5
 340 -1 l 7
 96.0947265625 -1 259 334 0 332 c 5
 0 384 0 490 0 490 c 7
 172.104619345 490 141 795 340 800 c 4
 340 611 l 5
EndSplineSet
Validated: 33
EndChar

StartChar: braceright
Encoding: 125 125 37
Width: 440
Flags: W
LayerCount: 2
Fore
SplineSet
0 612 m 1
 82 614 69 412 152 412 c 1
 43 386 57 166.5 0 165.5 c 1
 0 138.5 l 1
 0 0 l 1
 243.179364886 0 81.9660708369 333.008919714 337.698689497 333.008919714 c 0
 338.462070448 333.008919714 339.229166667 333 340 333 c 1
 340 385 340 491 340 491 c 1
 167.895507812 491 199 796 0 801 c 1
 0 638 l 1
 0 612 l 1
EndSplineSet
Validated: 41
EndChar

StartChar: H
Encoding: 72 72 38
Width: 662
Flags: HW
HStem: 0 21G<-67 112 447 626> 339 192<111.11 447> 780 20G<-67 110.056 447 624.05>
VStem: -67 177.76<0 339 531 800> 447 179<0 339 531 800>
LayerCount: 2
Fore
SplineSet
0 800 m 1
 61 800 l 1
 61.759765625 472 l 5
 501 472 l 5
 501 800 l 1
 560 800 l 1
 562 0 l 1
 501 0 l 1
 501 399 l 5
 62.1103515625 399 l 5
 63 0 l 1
 0 0 l 1
 0 800 l 1
EndSplineSet
EndChar

StartChar: equal
Encoding: 61 61 39
Width: 754
Flags: W
HStem: 169 146<0 654> 462 146<0 654>
LayerCount: 2
Fore
SplineSet
0 315 m 1
 654 315 l 1
 654 169 l 1
 0 169 l 1
 0 315 l 1
0 608 m 1
 654 608 l 1
 654 462 l 1
 0 462 l 1
 0 608 l 1
EndSplineSet
Validated: 1
EndChar

StartChar: backslash
Encoding: 92 92 40
Width: 537
Flags: W
LayerCount: 2
Fore
SplineSet
1.0224609375 800 m 1
 278.977539062 0 l 1
 339.310872396 -0 399.644205729 0 459.977539062 0 c 1
 194 800 l 1
 129.674153646 800 65.3483072917 800 1.0224609375 800 c 1
EndSplineSet
Validated: 9
EndChar

StartChar: bracketright
Encoding: 93 93 41
Width: 345
Flags: W
HStem: 0 21G<-3 245> 780 20G<0 245>
VStem: -3 248<0 160.5 629 800> 67 178<160.5 629>
LayerCount: 2
Fore
SplineSet
245 800 m 1xe0
 245 0 l 1
 241 0 l 1
 1 0 l 1
 -3 0 l 1
 -3 161.5 l 1xe0
 67 160.5 l 1xd0
 73 629 l 1
 0 629 l 1
 0 645 l 1
 0 800 l 1
 241 800 l 1
 245 800 l 1xe0
EndSplineSet
Validated: 1
EndChar

StartChar: bracketleft
Encoding: 91 91 42
Width: 344
Flags: W
LayerCount: 2
Fore
SplineSet
0 800 m 29
 0 0 l 29
 244 0 l 29
 244 161.5 l 29
 174 160.5 l 29
 168 629 l 29
 241 629 l 29
 241 800 l 29
 0 800 l 29
EndSplineSet
Validated: 9
EndChar

StartChar: bar
Encoding: 124 124 43
Width: 247
Flags: W
HStem: 780 20G<0 176>
VStem: 0 176<-132 800>
LayerCount: 2
Fore
SplineSet
0 800 m 1
 176 800 l 5
 176 -132 l 5
 0 -132 l 1
 0 800 l 1
EndSplineSet
Validated: 1
EndChar

StartChar: asciicircum
Encoding: 94 94 44
Width: 632
Flags: W
LayerCount: 2
Fore
SplineSet
0 652 m 1
 0 498 l 1
 266 658 l 1
 530 482 l 1
 532 638 l 1
 316 800 l 1
 210 800 l 1
 0 652 l 1
EndSplineSet
Validated: 9
EndChar

StartChar: quotesingle
Encoding: 39 39 45
Width: 277
Flags: W
LayerCount: 2
Fore
SplineSet
34 800 m 5
 36 722 42.345703125 678.430664062 0 608 c 13
 0 528 l 5
 100.8046875 588.916015625 156.778320312 699.91796875 194 800 c 13
 34 800 l 5
EndSplineSet
Validated: 41
EndChar

StartChar: quotedbl
Encoding: 34 34 46
Width: 446
Flags: W
LayerCount: 2
Fore
SplineSet
177 800 m 1
 34 800 l 1
 34.584291127 777.212646046 35.5394838017 757.278566851 35.5431332085 738.719355691 c 0
 35.5347506377 694.138193429 29.9284688124 657.777942381 0 608 c 1
 0 607 l 1
 0 540 l 1
 0 528 l 1
 100.8046875 588.916015625 156.778320312 699.91796875 194 800 c 1
 177 800 l 1
203.02592285 800 m 1
 203 800 l 1
 203.581286734 777.329817387 204.52967051 757.568115771 204.542996896 739.210073662 c 0
 204.509490506 694.472340033 198.861363242 657.666322483 169 608 c 1
 169 541 l 1
 169 528 l 1
 269.8046875 588.916015625 325.778320312 699.91796875 363 800 c 1
 345.628013883 800 l 1
 345.752030171 800.33332044 345.876024803 800.666654229 346 801 c 1
 203 801 l 1
 203.008562681 800.666055438 203.017205018 800.332723655 203.02592285 800 c 1
EndSplineSet
Validated: 9
EndChar

StartChar: Y
Encoding: 89 89 47
Width: 816
Flags: HW
LayerCount: 2
Fore
SplineSet
319.838867188 338 m 1
 0 800 l 1
 79 800 l 1
 366 394 l 1
 639 800 l 1
 716 800 l 1
 190 0 l 1
 109 0 l 1
 332 338 l 1
 319.838867188 338 l 1
EndSplineSet
EndChar

StartChar: N
Encoding: 78 78 48
Width: 663
Flags: HW
LayerCount: 2
Fore
SplineSet
55 800 m 5
 0 800 l 5
 0 0 l 5
 64 0 l 5
 62 675 l 5
 502 0 l 5
 563 0 l 5
 561 800 l 5
 502 800 l 5
 502 115 l 5
 55 800 l 5
EndSplineSet
EndChar

StartChar: I
Encoding: 73 73 49
Width: 423
Flags: HW
LayerCount: 2
Fore
SplineSet
1 57.5 m 1
 1 0 l 1
 96 0 l 1
 241 0 l 1
 323 0 l 1
 323 57.5 l 1
 192 57.5 l 5
 190.584960938 741 l 5
 322 741 l 1
 322 801 l 1
 0 801 l 1
 0 741 l 1
 133 741 l 5
 133 57.5 l 5
 1 57.5 l 1
EndSplineSet
EndChar

StartChar: O
Encoding: 79 79 50
Width: 824
Flags: HW
HStem: 0 175.707<287.019 428.153> 595.354 205.646<285.078 430.093>
VStem: 0 181.244<290.889 482.945> 533.977 190.023<290.889 482.945>
LayerCount: 2
Fore
SplineSet
60.095703125 400.704101562 m 0
 60.095703125 225.48828125 200.955078125 58.92578125 358.80859375 58.92578125 c 0
 516.661132812 58.92578125 665.522460938 225.48828125 665.522460938 400.704101562 c 0
 665.522460938 575.920898438 516.645199427 740.996671684 358.80859375 738.75390625 c 0
 165 736 60.095703125 575.920898438 60.095703125 400.704101562 c 0
0 402 m 0
 0 624 162 801 362 801 c 0
 562 801 724 624 724 402 c 0
 724 180 562 0 362 0 c 0
 162 0 0 180 0 402 c 0
EndSplineSet
EndChar

StartChar: M
Encoding: 77 77 51
Width: 852
Flags: HW
HStem: 0 21G<-1145.5 -962.75 -431.75 -246> 781 20G<-1145.5 -932.786 -478.53 -246>
VStem: -1145.5 182.75<0 538> -431.75 185.75<0 532>
LayerCount: 2
Fore
SplineSet
393 57.5 m 1
 359 57.5 l 1
 62 676 l 1
 64 1 l 1
 0 1 l 1
 0 801 l 1
 55 801 l 1
 376 172 l 1
 697 801 l 1
 752 801 l 1
 752 1 l 1
 688 1 l 1
 690 676 l 1
 393 57.5 l 1
EndSplineSet
EndChar

StartChar: A
Encoding: 65 65 52
Width: 816
Flags: HW
HStem: 0 21G<-892 -709.97 -316.087 -126> 138 164<-595.783 -405.918> 780 20G<-580 -387.3>
LayerCount: 2
Fore
SplineSet
0 0 m 1
 329 802 l 1
 425 802 l 1
 716 0 l 1
 639 0 l 1
 580.104492188 168 l 1
 146.470703125 168 l 1
 79 0 l 1
 0 0 l 1
554.86328125 240 m 1
 378 744.5 l 1
 175.38671875 240 l 1
 554.86328125 240 l 1
EndSplineSet
EndChar

StartChar: B
Encoding: 66 66 53
Width: 579
Flags: HW
HStem: 0 166.998<-646.21 -428.912> 345 156<-646.21 -426.64> 631.164 169.836<-646.21 -416.179>
VStem: -815.211 169<166.998 345 501 631.164>
LayerCount: 2
Fore
SplineSet
65.3203125 739 m 5
 65.3203125 485.8359375 l 5
 212.3203125 485.8359375 l 6
 215.674804688 485.815429688 218.994140625 485.622070312 222.283203125 485.614257812 c 4
 471.3203125 485 475.686523438 737.3984375 212.934570312 738.423828125 c 6
 65.3203125 739 l 5
75.3203125 -0.1640625 m 5
 0.3203125 0 l 5
 0.3203125 801 l 5
 75.3203125 800.8359375 l 5
 242.3203125 800.8359375 l 6
 491.3203125 800.8359375 558.3203125 510 348.3203125 453 c 5
 556.3203125 367 515.3203125 -0.1640625 230.3203125 -0.1640625 c 6
 75.3203125 -0.1640625 l 5
65.3203125 424.8359375 m 5
 65.3203125 60.833984375 l 5
 211.934570312 60.259765625 l 6
 488.772460938 59.17578125 482.405273438 423.208007812 212.934570312 424.259765625 c 6
 65.3203125 424.8359375 l 5
EndSplineSet
EndChar

StartChar: E
Encoding: 69 69 54
Width: 674
Flags: HW
LayerCount: 2
Fore
SplineSet
574 60.9453125 m 1
 63 61.5 l 5
 62 424.001953125 l 5
 573 423.447265625 l 1
 573 485 l 1
 62 485.001953125 l 5
 61 740 l 5
 572 739.4453125 l 1
 572 801 l 1
 63 801 l 5
 0 801 l 5
 0 0 l 5
 62 0 l 5
 63 0 l 5
 573 0 l 1
 574 60.9453125 l 1
573 485 m 1025
573 0 m 1025
574 60.9453125 m 1025
EndSplineSet
EndChar

StartChar: R
Encoding: 82 82 55
Width: 588
Flags: HW
HStem: 0 21G<-752.293 -577.292 -347.94 -171.292> 639.068 161.932<-578.292 -369.234>
VStem: -752.293 175<0 360 523.904 639.068 800 801>
LayerCount: 2
Fore
SplineSet
64.4814453125 738.1640625 m 1
 64.4814453125 485 l 1
 211.481445312 485 l 2
 214.8359375 484.979492188 218.158731042 484.627344697 221.444335938 484.778320312 c 0
 491.567692011 497.190658783 497.383875359 736.474346286 212.095703125 737.587890625 c 2
 64.4814453125 738.1640625 l 1
78.978515625 423.943359375 m 1
 64.4814453125 424 l 1
 63.4814453125 0.1640625 l 1
 -0.5185546875 0.1640625 l 1
 -0.5185546875 800.1640625 l 1
 74.4814453125 800 l 1
 241.481445312 800 l 2
 571.481445312 800 578.479492188 421.998046875 212.095703125 423.423828125 c 2
 195.028320312 423.490234375 l 1
 291.35546875 349.983398438 470.541992188 142.784179688 471.481445312 0 c 1
 409.481445312 0 l 1
 405.55859375 122.5859375 191.012695312 400.975585938 78.978515625 423.943359375 c 1
EndSplineSet
EndChar

StartChar: G
Encoding: 71 71 56
Width: 824
Flags: HW
HStem: 0 174.08<271.279 486.376>
VStem: -0.227325 181.1<273.26 503.575>
LayerCount: 2
Fore
SplineSet
656.161132812 663 m 1029
722.770507812 433 m 1
 346.770507812 433 l 1
 346.770507812 370 l 1
 658.161132812 370 l 1
 650.161132812 182 570.161132812 57.5 364.161132812 57.5 c 0
 248.161132812 57.5 76.7421875 157.510742188 72.1611328125 398 c 0
 68.1611328125 608 164.161132812 708 360.220703125 735.66015625 c 0
 531.192382812 759.78125 626.794921875 691.119140625 656.161132812 663 c 5
 655.905273438 735.861328125 l 1
 628.770507812 757 597.770507812 814 361.770507812 800 c 0
 140.344726562 786.864257812 -0.2294921875 624 -0.2294921875 402 c 0
 -0.2294921875 180 161.770507812 0 361.770507812 0 c 0
 694.770507812 0 732.161132812 272 722.770507812 433 c 1
EndSplineSet
EndChar

StartChar: U
Encoding: 85 85 57
Width: 703
Flags: HW
LayerCount: 2
Fore
SplineSet
0 800 m 1
 1 252 l 1
 -1.52774999644 -69.7056340937 602.197535186 -95.2600687883 603 244 c 1
 600 800 l 1
 539 800 l 1
 547 267 l 1
 540.499086782 -7.55664697144 73.1622794687 -14.9713227675 64 260 c 1
 61 800 l 1
 0 800 l 1
EndSplineSet
EndChar

StartChar: S
Encoding: 83 83 58
Width: 857
Flags: HW
VStem: 2.64648 754.338<137.905 514.419>
LayerCount: 2
Fore
SplineSet
681 227 m 1
 654 -49 129 92 0 167 c 1
 2.646484375 86.5048828125 l 1
 128 20 309.825195312 3.1083984375 392.775390625 0.5166015625 c 0
 680.513671875 3.1083984375 757.584184812 137.899628189 756.984375 254.553710938 c 0
 756 446 85.0986328125 434.482421875 71 563 c 1
 59.236328125 769.020507812 511 787 728 646 c 1
 727.172851562 711.673828125 l 1
 633.669921875 753.501953125 505.5390625 798.921875 365.557617188 798.921875 c 1
 165.00986681 790.96192337 0 707 4.1044921875 565.592773438 c 1
 0 353 676.286132812 405.737304688 681 227 c 1
EndSplineSet
EndChar

StartChar: F
Encoding: 70 70 59
Width: 674
Flags: HW
HStem: 0 21G<0 171> 336 177<171 573> 629.164 171.836<171 572>
VStem: 0 171<0 336 513 629.164>
LayerCount: 2
Fore
SplineSet
63 0 m 1
 62 0 l 1
 0 0 l 1
 0 801 l 1
 171 801 l 1
 572 801 l 1
 572 739.4453125 l 1
 61 740 l 1
 62 485.001953125 l 1
 573 485 l 1
 573 423.447265625 l 1
 62 424.001953125 l 1
 63 0 l 1
573 485 m 1025
EndSplineSet
EndChar

StartChar: T
Encoding: 84 84 60
Width: 659
Flags: HW
HStem: 0 21G<207 383> 646 155<0 207 381.285 559>
VStem: 207 176<0 646>
LayerCount: 2
Fore
SplineSet
308 0 m 1
 249 0 l 1
 250 742 l 1
 0 742 l 1
 0 801 l 1
 559 801 l 1
 559 742 l 1
 306.28515625 742 l 1
 308 0 l 1
EndSplineSet
EndChar

StartChar: L
Encoding: 76 76 61
Width: 533
Flags: HW
LayerCount: 2
Fore
SplineSet
0 0 m 1
 144.333007812 0 288.666992188 0 433 0 c 1
 432 57.5 l 1
 58 57.5 l 5
 55.2998046875 802 l 5
 1 801 l 1
 0 0 l 1
EndSplineSet
EndChar

StartChar: P
Encoding: 80 80 62
Width: 579
Flags: HW
HStem: 0 21G<-716.669 -546.67> 359 164.424<-546.67 -338.255> 636.061 163.939<-546.67 -339.947>
VStem: -716.669 170<0 359 521.896 636.061 800 801>
LayerCount: 2
Fore
SplineSet
64.970703125 738 m 1
 64.970703125 484.8359375 l 1
 211.970703125 484.8359375 l 2
 215.325195312 484.815429688 218.646072518 484.513276062 221.93359375 484.614257812 c 4
 496.824259083 493.057987452 499.642657714 736.303376931 212.584960938 737.423828125 c 6
 64.970703125 738 l 1
212.584960938 423.259765625 m 1
 64.970703125 423.8359375 l 1
 63.970703125 0 l 1
 -0.029296875 0 l 1
 -0.029296875 800 l 1
 74.970703125 799.8359375 l 1
 241.970703125 799.8359375 l 2
 571.970703125 799.8359375 579 424 212.584960938 423.259765625 c 1
EndSplineSet
EndChar

StartChar: V
Encoding: 86 86 63
Width: 816
Flags: HW
LayerCount: 2
Fore
SplineSet
0 802 m 5
 329 0 l 5
 425 0 l 5
 716 802 l 5
 639 802 l 5
 378 57.5 l 5
 79 802 l 5
 0 802 l 5
EndSplineSet
EndChar

StartChar: D
Encoding: 68 68 64
Width: 674
Flags: HW
HStem: 0 161.896<171.972 360.858> 628.061 171.939<169.972 364.795>
VStem: -0.0274835 172<161.896 628.061>
LayerCount: 2
Fore
SplineSet
65.4208984375 738 m 1
 65.8359375 60.576171875 l 1
 297.8359375 60.576171875 l 2
 301.190429688 60.5556640625 304.509791487 60.3392882126 307.798828125 60.3544921875 c 4
 577.749380351 61.6023716945 580.284595176 736.724712817 298.03515625 737.423828125 c 6
 65.4208984375 738 l 1
298.450195312 -1 m 0
 227.120117188 -1.1953125 71.7197265625 -0.0439453125 0.4208984375 0 c 1
 0.4208984375 800 l 1
 75.4208984375 799.8359375 l 1
 327.420898438 799.8359375 l 2
 657.420898438 799.8359375 664.450195312 0 298.450195312 -1 c 0
EndSplineSet
EndChar

StartChar: C
Encoding: 67 67 65
Width: 759
Flags: HW
HStem: 0 21G<-434.891 -253.28>
VStem: -702.391 188.1<282.592 505.108>
LayerCount: 2
Fore
SplineSet
656.609375 139 m 1025
72.609375 407 m 24
 73.609375 580 167 695 363.059570312 722.66015625 c 0
 534.03125 746.78125 629.633789062 682.119140625 659 654 c 1
 658.744140625 722.861328125 l 1
 631.609375 744 600.609375 801 364.609375 787 c 0
 143.18359375 773.864257812 1.609375 623 0.21875 403 c 0
 0.21875 181 140.79296875 18.1357421875 362.21875 5 c 0
 598.21875 -9 629.21875 48 656.353515625 69.138671875 c 1
 656.609375 139 l 1
 627.243164062 110.880859375 531.640625 46.21875 360.668945312 70.33984375 c 0
 164.609375 98 71.609375 234 72.609375 407 c 24
659 654 m 1025
EndSplineSet
EndChar

StartChar: J
Encoding: 74 74 66
Width: 386
Flags: HW
HStem: 9 158<-0.308594 108.616>
VStem: 111.208 170.346<169.101 649>
LayerCount: 2
Fore
SplineSet
-0.30859375 800 m 1
 0.4833984375 741 l 1
 225 741 l 1
 227 110 l 1
 219 51 148 48 0.1328125 69.1796875 c 1
 -0.30859375 9 l 1
 117 -3 294.204101562 -28.4228515625 285.69140625 165 c 1
 285.491210938 165.029296875 l 1
 282.345703125 778 l 1
 282.483398438 778 l 1
 281.69140625 800 l 1
 280.69140625 800 l 1
 137.69140625 800 l 1
 -0.30859375 800 l 1
EndSplineSet
EndChar

StartChar: K
Encoding: 75 75 67
Width: 822
Flags: HW
HStem: 0 21G<0 180 499.897 722> 780 20G<0 178.135 463.1 698>
VStem: 0 178.806<0 297.302 479.165 800>
LayerCount: 2
Fore
SplineSet
57 0 m 1
 0 0 l 1
 0 800 l 1
 55 800 l 1
 55.26953125 693.055664062 53.732421875 470.9453125 54 364 c 1
 618 800 l 1
 698 800 l 1
 244 437 l 1
 722 0 l 1
 639 0 l 1
 194 405 l 1
 56.2607421875 297.301757812 l 1
 56.5078125 198.202148438 56.7548828125 99.1015625 57 0 c 1
EndSplineSet
EndChar

StartChar: Q
Encoding: 81 81 68
Width: 900
Flags: HW
HStem: 49 173.54<270.788 419.288> 602.878 198.122<287.367 434.073>
VStem: -0.718751 184.612<304.206 485.144> 533.258 190.023<326.149 492.243>
LayerCount: 2
Fore
SplineSet
342.9453125 118.852539062 m 0
 193.702148438 128.446289062 63.28125 229.756835938 63.28125 397.561523438 c 0
 63.28125 590.692382812 175.620117188 741 358.594726562 741 c 0
 514.567382812 741 645.250976562 580.104492188 645.250976562 406.974609375 c 0
 645.250976562 372.249023438 615.15625 284.653320312 598.594726562 235 c 1
 459.594726562 356 l 1
 405.594726562 294 l 1
 563.594726562 182 l 1
 531.594726562 126 423.155273438 113.696289062 342.9453125 118.852539062 c 0
723.27734375 402 m 0
 723.27734375 624 561.27734375 801 361.27734375 801 c 0
 161.27734375 801 -0.72265625 624 -0.72265625 402 c 0
 -0.72265625 180 161.27734375 49 361.27734375 49 c 0
 462.088867188 49 537.594726562 65 606.594726562 132 c 5
 661.938476562 83.20703125 807.44140625 -33.896484375 671.594726562 -113 c 4
 609.009765625 -149.443359375 507.956054688 -128.833007812 327.594726562 -104 c 1
 206.594726562 -81 93.66015625 -109.266601562 64.5947265625 -136 c 1
 65.27734375 -193 l 1
 147.869140625 -143.802734375 219.489257812 -160.321289062 425.27734375 -183 c 1
 885.27734375 -268 871.594726562 51 652.594726562 184 c 1
 684.569335938 242.506835938 723.27734375 324.642578125 723.27734375 402 c 0
EndSplineSet
EndChar

StartChar: W
Encoding: 87 87 69
Width: 1483
Flags: HW
LayerCount: 2
Fore
SplineSet
0 800 m 1
 329 0 l 1
 425 0 l 1
 693.001612903 736.774193548 l 1
 996 0 l 1
 1092 0 l 1
 1383 800 l 1
 1306 800 l 1
 1045 57.5 l 1
 746 800 l 1
 716 800 l 1
 667 800 l 1
 639 800 l 1
 378 57.5 l 1
 79 800 l 1
 0 800 l 1
EndSplineSet
EndChar

StartChar: X
Encoding: 88 88 70
Width: 817
Flags: HW
LayerCount: 2
Fore
SplineSet
1 1 m 1
 80 1 l 1
 364 355.5 l 1
 640 1 l 1
 717 1 l 1
 405.698242188 400.293945312 l 1
 716 801 l 1
 639 801 l 1
 363 445.5 l 1
 79 801 l 1
 0 801 l 1
 311.041015625 398.969726562 l 1
 1 1 l 1
EndSplineSet
EndChar

StartChar: Z
Encoding: 90 90 71
Width: 860
Flags: HW
LayerCount: 2
Fore
SplineSet
0 800 m 1
 0 741 l 1
 680 741 l 1
 0 58.5 l 1
 0 0 l 1
 755 -1 l 1
 755 57.5 l 1
 80 57.5 l 1
 760 744 l 1
 760 802 l 1
 0 800 l 1
EndSplineSet
EndChar

StartChar: grave
Encoding: 96 96 72
Width: 368
Flags: W
HStem: 631 169<214 226>
VStem: 0 283
LayerCount: 2
Fore
SplineSet
0 800 m 25
 226 800 l 25
 283 631 l 25
 214 631 l 25
 0 800 l 25
EndSplineSet
Validated: 1
EndChar

StartChar: asterisk
Encoding: 42 42 73
Width: 326
Flags: W
LayerCount: 2
Fore
SplineSet
75 800 m 1
 104 712 l 1
 12 757 l 1
 0 697 l 1
 96 684 l 1
 16 611 l 1
 71 583 l 1
 114 660 l 1
 157 581 l 1
 210 614 l 1
 129 684 l 1
 226 692 l 1
 209 752 l 1
 123 711 l 1
 144 800 l 1
 75 800 l 1
EndSplineSet
Validated: 9
EndChar

StartChar: plus
Encoding: 43 43 74
Width: 614
Flags: W
HStem: 362 170<0 173.674 338.312 512>
VStem: 173 164<182 362 532 716>
LayerCount: 2
Fore
SplineSet
175 716 m 1
 339 716 l 1
 338.311523438 532 l 1
 512 532 l 1
 512 524 l 1
 514 524 l 1
 514 388 l 1
 512 388 l 1
 512 362 l 1
 337.673828125 362 l 1
 337 182 l 1
 173 182 l 1
 173.673828125 362 l 1
 0 362 l 1
 0 532 l 1
 174.311523438 532 l 1
 175 716 l 1
EndSplineSet
Validated: 1
EndChar

StartChar: hyphen
Encoding: 45 45 75
Width: 610
Flags: W
HStem: 362 170<-2 510>
LayerCount: 2
Fore
SplineSet
-2 532 m 1
 510 532 l 1
 510 362 l 1
 -2 362 l 1
 -2 532 l 1
EndSplineSet
Validated: 1
EndChar

StartChar: numbersign
Encoding: 35 35 76
Width: 1005
Flags: W
HStem: 0 21G<65.292 234.077 369.292 532.077> 216 126<47.2266 138.573 343.392 442.573 645.392 766.15> 484 123<115 224.407 433.226 532.407 731.226 836.924> 780 20G<329.919 498.704 633.919 796.704>
LayerCount: 2
Fore
SplineSet
336.704101562 800 m 1
 498.704101562 800 l 1
 433.225930176 607 l 1
 575.225930176 607 l 1
 640.704101562 800 l 1
 796.704101562 800 l 1
 731.225930176 607 l 1
 893 607 l 1
 836.923828125 484 l 1
 684.407226562 484 l 1
 645.391601562 342 l 1
 813.2265625 342 l 1
 766.150390625 216 l 1
 598.573261719 216 l 1
 525.291992188 0 l 1
 369.291992188 0 l 1
 442.573261719 216 l 1
 300.573261719 216 l 1
 227.291992188 0 l 1
 65.2919921875 0 l 1
 138.573261719 216 l 1
 0.150390625 216 l 1
 47.2265625 342 l 5
 185.391601562 342 l 1
 224.407226562 484 l 1
 70.923828125 484 l 1
 115 607 l 1
 271.225930176 607 l 1
 336.704101562 800 l 1
532.407226562 488 m 1
 382.407226562 488 l 1
 343.391601562 338 l 1
 493.391601562 338 l 1
 532.407226562 488 l 1
EndSplineSet
Validated: 1
EndChar

StartChar: dollar
Encoding: 36 36 77
Width: 698
Flags: W
HStem: 138.643 100.322<53.7153 239.025 358.025 416.256> 323.26 103.165<140.545 239.025 358.025 455.903> 508.374 117.903<162.273 239.025 358.025 474.384>
LayerCount: 2
Fore
SplineSet
3.0966796875 486.387695312 m 1
 -2.6337890625 351.247070312 119.696289062 326.873046875 239.025390625 323.259765625 c 1
 239.025390625 238.96484375 l 1
 134.260742188 240.334960938 26.091796875 257.513671875 0.025390625 283.891601562 c 1
 2.072265625 181.296875 l 1
 62.259765625 145.663085938 162.420898438 139.671875 239.025390625 138.642578125 c 1
 239.025390625 16 l 1
 358.025390625 16 l 1
 358.025390625 139.409179688 l 1
 551.078125 150.142578125 597.99609375 227.331054688 598 294.708007812 c 0
 598.006835938 419.029296875 476.421875 434.625976562 358.025390625 432.01953125 c 1
 358.025390625 504.658203125 l 1
 450.546875 494.71875 543.469726562 472.532226562 573.424804688 462.857421875 c 1
 574.448242188 578.233398438 l 1
 514.856445312 599.026367188 442.016601562 620.057617188 358.025390625 627.41015625 c 1
 358.025390625 732 l 1
 239.025390625 732 l 1
 239.025390625 626.27734375 l 1
 104.80078125 611.731445312 7.5029296875 560.557617188 3.224609375 486.370117188 c 1
 3.0966796875 486.387695312 l 1
358.025390625 323.237304688 m 1
 416.907226562 323.158203125 459.127929688 319.387695312 458.74609375 294.112304688 c 0
 456.09375 269.024414062 414.893554688 253.372070312 358.025390625 245.387695312 c 1
 358.025390625 323.237304688 l 1
239.025390625 426.424804688 m 1
 181.658203125 424.055664062 139.719726562 426.196289062 136.416992188 449.680664062 c 1
 139.9453125 487.479492188 182.001953125 503.9765625 239.025390625 508.374023438 c 1
 239.025390625 426.424804688 l 1
EndSplineSet
Validated: 41
EndChar

StartChar: percent
Encoding: 37 37 78
Width: 715
Flags: W
HStem: 0.5 105<461.95 521.725> 169.5 107<461.95 521.725> 506 105<109.95 169.725> 675 107<109.95 169.725> 780 20G<411.499 447.918 447.918 616>
VStem: 0 108<612.775 672.55> 172 104<612.775 672.55> 352 108<107.275 167.05> 524 104<107.275 167.05>
LayerCount: 2
Fore
SplineSet
0 644 m 0xf780
 0 720 62 782 138 782 c 0
 214 782 276 720 276 644 c 0
 276 568 214 506 138 506 c 0
 62 506 0 568 0 644 c 0xf780
108 643 m 0
 108 625 122 611 140 611 c 0
 158 611 172 625 172 643 c 0
 172 661 158 675 140 675 c 0
 122 675 108 661 108 643 c 0
352 138.5 m 0
 352 214.5 414 276.5 490 276.5 c 0
 566 276.5 628 214.5 628 138.5 c 0
 628 62.5 566 0.5 490 0.5 c 0
 414 0.5 352 62.5 352 138.5 c 0
460 137.5 m 0
 460 119.5 474 105.5 492 105.5 c 0
 510 105.5 524 119.5 524 137.5 c 0
 524 155.5 510 169.5 492 169.5 c 0
 474 169.5 460 155.5 460 137.5 c 0
31.6078896841 56.4426601501 m 1
 422 800 l 1
 447.917535116 799.852741278 l 1
 448 800 l 1xef80
 616 799 l 1
 194.973632812 0 l 1
 165 0 l 1
 1.9736328125 0 l 1
 0 0 l 1
 31.6078896841 56.4426601501 l 1
EndSplineSet
Validated: 1
EndChar

StartChar: ampersand
Encoding: 38 38 79
Width: 810
Flags: W
VStem: 1 163<174.448 299.75> 53 153<525.877 612.321>
LayerCount: 2
Fore
SplineSet
703 0 m 1x80
 703 154.5 l 1
 682.261057487 167.887451697 655.964971574 185.071486277 626.339766444 204.886190919 c 1
 664.354495398 264.591766217 696.319218364 333.446978223 726 406 c 1
 557 406 l 1
 535.796228843 361.060664115 518.598694364 323.833333836 499.416708294 292.511293654 c 1
 457.102556208 322.761163935 414.118533841 354.697419425 374.571635055 386.170892787 c 1
 480.725188692 409.927848132 586.525500339 440.396199622 583 593 c 0
 582 737 495 791 331 800 c 1
 175 802 54 771 53 578 c 0x40
 54.1935323815 544.978937445 74.182808769 504.281297338 106.725853731 459.858494139 c 1
 45.587454685 418.466294539 0.677536847009 352.927324629 1 242 c 1
 -11.482421875 104.666015625 64 0 288 0 c 0
 389.446929316 0 467.807700556 34.0795666821 531.317263955 90.3176292322 c 1
 600.31970869 45.9453632443 661.81208586 13.1397026705 703 0 c 1x80
219.093410719 335.138506942 m 1
 270.75043658 285.575755473 329.890662627 235.791413341 389.609555291 190.156320209 c 1
 362.107479937 176.472000862 328.744942787 164.673422872 287 154 c 1
 208 143 167 163 164 225 c 0x80
 164.447162267 279.442006026 185.989481364 312.788855224 219.093410719 335.138506942 c 1
235.613385436 514.998673563 m 1
 216.444143552 538.708314491 205.470307775 559.285797311 206 575 c 0x40
 200.243183396 664.801651854 442 646 438 598 c 0
 436.110222974 548.629575198 338.242908493 543.230254766 235.613385436 514.998673563 c 1
EndSplineSet
Validated: 41
EndChar

StartChar: colon
Encoding: 58 58 80
Width: 182
Flags: HW
HStem: 159.25 173.75<-12.7831 105.253> 471.25 173.75<-14.7831 103.253>
VStem: -43.7651 180<186.669 302.018 501.709 610.689>
LayerCount: 2
Fore
SplineSet
2.4697265625 294.583007812 m 0xf0
 2.4697265625 315.4765625 19.994140625 333 42.2353515625 333 c 0
 64.4765625 333 82 315.4765625 82 294.583007812 c 0
 82 273.689453125 64.4765625 256.165039062 42.2353515625 256.165039062 c 0
 19.994140625 256.165039062 2.4697265625 273.689453125 2.4697265625 294.583007812 c 0xf0
0.4697265625 508.41796875 m 0xf0
 0.4697265625 529.311523438 17.994140625 546.834960938 40.2353515625 546.834960938 c 0
 62.4765625 546.834960938 80 529.311523438 80 508.41796875 c 0
 80 487.524414062 62.4765625 470 40.2353515625 470 c 0
 17.994140625 470 0.4697265625 487.524414062 0.4697265625 508.41796875 c 0xf0
EndSplineSet
EndChar

StartChar: semicolon
Encoding: 59 59 81
Width: 180
Flags: HW
HStem: 88.625 50<-22.7651 47.953> 159.25 173.75<-8.78312 50.2349> 471.25 173.75<-10.7831 107.253>
VStem: -39.7651 180<186.864 302.018 501.709 610.689>
LayerCount: 2
Fore
SplineSet
0.4697265625 293.583007812 m 0
 0.4697265625 314.4765625 17.994140625 332 40.2353515625 332 c 0
 62.4765625 332 80 314.4765625 80 293.583007812 c 0
 80 293.034179688 79.98828125 292.487304688 79.9638671875 291.942382812 c 0
 78.0517578125 214.34765625 41 210.583007812 0.4697265625 194.583007812 c 1
 0.46875 224.58203125 l 1
 36 230.583007812 40.2353515625 255.165039062 40.2353515625 255.165039062 c 1
 17.994140625 255.165039062 0.4697265625 272.689453125 0.4697265625 293.583007812 c 0
-0.5302734375 509.41796875 m 0xf0
 -0.5302734375 530.311523438 16.994140625 547.834960938 39.2353515625 547.834960938 c 0
 61.4765625 547.834960938 79 530.311523438 79 509.41796875 c 0
 79 488.524414062 61.4765625 471 39.2353515625 471 c 0
 16.994140625 471 -0.5302734375 488.524414062 -0.5302734375 509.41796875 c 0xf0
EndSplineSet
EndChar

StartChar: underscore
Encoding: 95 95 82
Width: 962
Flags: W
HStem: -26 108<0 862>
LayerCount: 2
Fore
SplineSet
0 82 m 1
 862 82 l 1
 862 -26 l 1
 0 -26 l 1
 0 82 l 1
EndSplineSet
Validated: 1
EndChar

StartChar: asciitilde
Encoding: 126 126 83
Width: 501
Flags: W
LayerCount: 2
Fore
SplineSet
0.0400390625 476 m 17
 52.7646484375 523.544921875 134.717773438 525.483398438 213.459960938 476 c 1
 283.134765625 435.6328125 348.309570312 426.44140625 405 476 c 9
 405 294 l 17
 347.958007812 237.611328125 284.23046875 255.88671875 217.509765625 294 c 1
 153.6484375 335.280273438 70.3564453125 358.365234375 0.0400390625 295.299804688 c 9
 0.0400390625 476 l 17
EndSplineSet
Validated: 33
EndChar

StartChar: agrave
Encoding: 224 224 84
Width: 695
Flags: W
HStem: -0.145508 156.574<184.926 403.486> 259.085 137.06<209.225 372.32> 780 20G<154 358.571>
VStem: -0.398438 174.157<169.344 230.085>
LayerCount: 2
Fore
SplineSet
54 584 m 1
 351.083007812 729.564453125 604.750976562 606.780273438 605 453 c 0
 617 1 617 0 617 0 c 1
 595 0 l 1
 472 0 l 1
 460 0 l 1
 462.047252703 56.6249445567 l 1
 427.468880441 14.9150345998 378.995472082 -0.1455078125 279.53515625 -0.1455078125 c 0
 102.174804688 -0.1455078125 -0.3984375 64.3017578125 -0.3984375 186.091796875 c 0
 -0.3984375 307.881835938 102.174804688 396.14453125 279.53515625 396.14453125 c 0
 308.684555405 396.14453125 338.885120248 391.293155638 367.04271278 384.097351986 c 0
 399.337653983 377.373963068 429.981835979 368.027612821 452.900992801 358.435658161 c 1
 450.901226866 427.715012623 420.21393486 492.363852162 302.8320956 492.897230324 c 0
 242.626111048 492.633963086 161.722752121 476.702784374 54 438 c 1
 54 557 l 1
 54 584 l 1
173.758789062 199.4296875 m 0
 174.5390625 164.064453125 218.57421875 156.428710938 277.526367188 156.428710938 c 0
 336.4765625 156.428710938 415.34375 159.451171875 413.00390625 199.639648438 c 0
 410.852539062 236.581054688 316.537109375 258.28125 279.8671875 259.084960938 c 0
 240.858398438 259.940429688 173.03125 232.385742188 173.758789062 199.4296875 c 0
154 800 m 1
 348 800 l 1
 422 660 l 1
 368 660 l 1
 154 800 l 1
EndSplineSet
Validated: 33
EndChar

StartChar: eacute
Encoding: 233 233 85
Width: 708
Flags: W
HStem: -1 158<226.935 505.892> 446.412 178.588<227.134 371.04>
LayerCount: 2
Fore
SplineSet
187.104492188 373 m 1
 202.544921875 417.745117188 244.684570312 446.412109375 298.120117188 446.412109375 c 0
 351.764648438 446.412109375 400.690429688 417.8359375 416.94921875 373 c 1
 187.104492188 373 l 1
476 800 m 1
 282 800 l 1
 208 660 l 1
 262 660 l 1
 476 800 l 1
178.686523438 249 m 1
 584.240234375 249 l 1
 605.279296875 248.639648438 l 1
 607.083007812 263.493164062 608 279.772460938 608 295.411132812 c 0
 608 468.565429688 470.350585938 625 298.329101562 625 c 0
 123.012695312 625 0.3154296875 463.072265625 0.3154296875 293.879882812 c 0
 0.3154296875 125.256835938 127 0 294.329101562 -1 c 0
 418.810351896 -3.44080883008 478.503270503 7.52286476609 514.532287397 22.5755435611 c 0
 537.882443531 32.0086593412 550.509280967 43.1855343341 565.329101562 54 c 1
 563.329101562 196 l 1
 481.329101562 169 427.329101562 154 325.329101562 157 c 0
 242.872070312 159.424804688 194.283203125 181.7109375 178.686523438 249 c 1
EndSplineSet
Validated: 41
EndChar

StartChar: egrave
Encoding: 232 232 86
Width: 708
Flags: W
HStem: -1 158<226.935 505.892> 446.412 178.588<227.134 371.04> 780 20G<154 358.571>
LayerCount: 2
Fore
SplineSet
187.104492188 373 m 1
 202.544921875 417.745117188 244.684570312 446.412109375 298.120117188 446.412109375 c 0
 351.764648438 446.412109375 400.690429688 417.8359375 416.94921875 373 c 1
 187.104492188 373 l 1
154 800 m 1
 348 800 l 1
 422 660 l 1
 368 660 l 1
 154 800 l 1
178.686523438 249 m 1
 584.240234375 249 l 1
 605.279296875 248.639648438 l 1
 607.083007812 263.493164062 608 279.772460938 608 295.411132812 c 0
 608 468.565429688 470.350585938 625 298.329101562 625 c 0
 123.012695312 625 0.3154296875 463.072265625 0.3154296875 293.879882812 c 0
 0.3154296875 125.256835938 127 0 294.329101562 -1 c 0
 418.810351896 -3.44080883008 478.503270503 7.52286476609 514.532287397 22.5755435611 c 0
 537.882443531 32.0086593412 550.509280967 43.1855343341 565.329101562 54 c 1
 563.329101562 196 l 1
 481.329101562 169 427.329101562 154 325.329101562 157 c 0
 242.872070312 159.424804688 194.283203125 181.7109375 178.686523438 249 c 1
EndSplineSet
Validated: 41
EndChar

StartChar: Ecircumflex
Encoding: 202 202 87
Width: 665
Flags: W
LayerCount: 2
Fore
SplineSet
573 137.4453125 m 1025
573 0 m 1025
573 500 m 1025
573 153.4453125 m 1025
573 0 m 1025
573 513 m 1025
71 927 m 1
 71 849 l 1
 295 947 l 1
 528 847 l 1
 530 924 l 1
 345 1029 l 1
 239 1029 l 1
 71 927 l 1
573 153.4453125 m 1
 171 153.998046875 l 1
 171 336 l 1
 573 335.447265625 l 1
 573 361.447265625 l 1
 573 500 l 1
 573 513 l 1
 171 513 l 1
 171 629.1640625 l 1
 573 628.611328125 l 1
 572.843376014 655.611528987 l 1
 572.89558401 655.611528987 572.947792005 655.611328125 573 655.611328125 c 1
 572 801 l 1
 171 801 l 1
 142 801 l 1
 0 801 l 1
 0 0 l 1
 141 0 l 1
 142 0 l 1
 170 0 l 1
 171 0 l 1
 573 0 l 1
 573 137.4453125 l 1
 573 153.4453125 l 1
EndSplineSet
Validated: 9
EndChar

StartChar: ecircumflex
Encoding: 234 234 88
Width: 708
Flags: W
HStem: -1 158<226.935 505.892> 446.412 178.588<227.134 371.04>
LayerCount: 2
Fore
SplineSet
187.104492188 373 m 1
 202.544921875 417.745117188 244.684570312 446.412109375 298.120117188 446.412109375 c 0
 351.764648438 446.412109375 400.690429688 417.8359375 416.94921875 373 c 1
 187.104492188 373 l 1
81 698 m 1
 81 607 l 1
 305 709 l 1
 538 605 l 1
 540 695 l 1
 355 800 l 1
 249 800 l 1
 81 698 l 1
178.686523438 249 m 1
 584.240234375 249 l 1
 605.279296875 248.639648438 l 1
 607.083007812 263.493164062 608 279.772460938 608 295.411132812 c 0
 608 468.565429688 470.350585938 625 298.329101562 625 c 0
 123.012695312 625 0.3154296875 463.072265625 0.3154296875 293.879882812 c 0
 0.3154296875 125.256835938 127 0 294.329101562 -1 c 0
 418.810351896 -3.44080883008 478.503270503 7.52286476609 514.532287397 22.5755435611 c 0
 537.882443531 32.0086593412 550.509280967 43.1855343341 565.329101562 54 c 1
 563.329101562 196 l 1
 481.329101562 169 427.329101562 154 325.329101562 157 c 0
 242.872070312 159.424804688 194.283203125 181.7109375 178.686523438 249 c 1
EndSplineSet
Validated: 41
EndChar

StartChar: edieresis
Encoding: 235 235 89
Width: 708
Flags: W
HStem: -1 158<226.935 505.892> 446.412 178.588<227.134 371.04> 660 124<153.2 246.8 387.2 480.8>
VStem: 138 124<675.2 768.8> 372 124<675.2 768.8>
LayerCount: 2
Fore
SplineSet
187.104492188 373 m 1
 202.544921875 417.745117188 244.684570312 446.412109375 298.120117188 446.412109375 c 0
 351.764648438 446.412109375 400.690429688 417.8359375 416.94921875 373 c 1
 187.104492188 373 l 1
138 722 m 0
 138 756 166 784 200 784 c 0
 234 784 262 756 262 722 c 0
 262 688 234 660 200 660 c 0
 166 660 138 688 138 722 c 0
372 722 m 0
 372 756 400 784 434 784 c 0
 468 784 496 756 496 722 c 0
 496 688 468 660 434 660 c 0
 400 660 372 688 372 722 c 0
178.686523438 249 m 1
 584.240234375 249 l 1
 605.279296875 248.639648438 l 1
 607.083007812 263.493164062 608 279.772460938 608 295.411132812 c 0
 608 468.565429688 470.350585938 625 298.329101562 625 c 0
 123.012695312 625 0.3154296875 463.072265625 0.3154296875 293.879882812 c 0
 0.3154296875 125.256835938 127 0 294.329101562 -1 c 0
 418.810351896 -3.44080883008 478.503270503 7.52286476609 514.532287397 22.5755435611 c 0
 537.882443531 32.0086593412 550.509280967 43.1855343341 565.329101562 54 c 1
 563.329101562 196 l 1
 481.329101562 169 427.329101562 154 325.329101562 157 c 0
 242.872070312 159.424804688 194.283203125 181.7109375 178.686523438 249 c 1
EndSplineSet
Validated: 41
EndChar

StartChar: igrave
Encoding: 236 236 90
Width: 260
Flags: W
HStem: 0 21G<-0.439453 172.561> 588 20G<-0.439453 172.561>
VStem: -0.439453 173<0 608>
LayerCount: 2
Fore
SplineSet
-88 823 m 1
 106 823 l 1
 180 684 l 1
 126 684 l 1
 -88 823 l 1
-0.439453125 0 m 1
 -0.439453125 608 l 1
 129.560546875 608 l 1
 172.560546875 608 l 1
 172.560546875 0 l 1
 129.560546875 0 l 1
 -0.439453125 0 l 1
EndSplineSet
Validated: 1
EndChar

StartChar: iacute
Encoding: 237 237 91
Width: 238
Flags: W
HStem: 0 21G<-0.439453 172.561> 588 20G<-0.439453 172.561>
VStem: -0.439453 173<0 608>
LayerCount: 2
Fore
SplineSet
232 826 m 1
 38 826 l 1
 -36 686 l 1
 18 686 l 1
 232 826 l 1
-0.439453125 0 m 1
 -0.439453125 608 l 1
 129.560546875 608 l 1
 172.560546875 608 l 1
 172.560546875 0 l 1
 129.560546875 0 l 1
 -0.439453125 0 l 1
EndSplineSet
Validated: 9
EndChar

StartChar: icircumflex
Encoding: 238 238 92
Width: 235
Flags: W
HStem: 0 21G<-0.439453 172.561> 588 20G<-0.439453 172.561>
VStem: -0.439453 173<0 608>
LayerCount: 2
Fore
SplineSet
-168 739 m 1
 -168 648 l 1
 56 750 l 1
 289 646 l 1
 291 736 l 1
 106 841 l 1
 0 841 l 1
 -168 739 l 1
0.560546875 0 m 1
 -0.439453125 0 l 1
 -0.439453125 608 l 1
 0.560546875 608 l 1
 130.560546875 608 l 1
 172.560546875 608 l 1
 172.560546875 0 l 1
 130.560546875 0 l 1
 0.560546875 0 l 1
EndSplineSet
Validated: 9
EndChar

StartChar: idieresis
Encoding: 239 239 93
Width: 254
Flags: W
HStem: 0 21G<-0.439453 172.561> 588 20G<-0.439453 172.561> 682 132.24<-73.8454 20.9656 119.611 221.269>
VStem: -94.8799 136.88<703.34 798.66> -0.439453 173<0 608> 102 136.88<700.46 795.78>
LayerCount: 2
Fore
SplineSet
102 748.120117188 m 0xe4
 102 784.080078125 132.16015625 814.240234375 170.440429688 814.240234375 c 0
 208.719726562 814.240234375 238.879882812 784.080078125 238.879882812 748.120117188 c 0
 238.879882812 712.16015625 208.719726562 682 170.440429688 682 c 0
 132.16015625 682 102 712.16015625 102 748.120117188 c 0xe4
-94.8798828125 751 m 0xf0
 -94.8798828125 786.959960938 -64.7197265625 817.120117188 -26.439453125 817.120117188 c 0
 11.83984375 817.120117188 42 786.959960938 42 751 c 0
 42 715.040039062 11.83984375 684.879882812 -26.439453125 684.879882812 c 0
 -64.7197265625 684.879882812 -94.8798828125 715.040039062 -94.8798828125 751 c 0xf0
-0.439453125 0 m 1xe8
 -0.439453125 608 l 1
 129.560546875 608 l 1
 172.560546875 608 l 1
 172.560546875 0 l 1
 129.560546875 0 l 1
 -0.439453125 0 l 1xe8
EndSplineSet
Validated: 1
EndChar

StartChar: aacute
Encoding: 225 225 94
Width: 695
Flags: W
HStem: -0.145508 156.574<184.926 403.486> 259.085 137.06<209.225 372.32>
VStem: -0.398438 174.157<169.344 230.085>
LayerCount: 2
Fore
SplineSet
54 584 m 1
 351.083007812 729.564453125 604.750976562 606.780273438 605 453 c 0
 617 1 617 0 617 0 c 1
 595 0 l 1
 472 0 l 1
 460 0 l 1
 462.047252703 56.6249445567 l 1
 427.468880441 14.9150345998 378.995472082 -0.1455078125 279.53515625 -0.1455078125 c 0
 102.174804688 -0.1455078125 -0.3984375 64.3017578125 -0.3984375 186.091796875 c 0
 -0.3984375 307.881835938 102.174804688 396.14453125 279.53515625 396.14453125 c 0
 308.684555405 396.14453125 338.885120248 391.293155638 367.04271278 384.097351986 c 0
 399.337653983 377.373963068 429.981835979 368.027612821 452.900992801 358.435658161 c 1
 450.901226866 427.715012623 420.21393486 492.363852162 302.8320956 492.897230324 c 0
 242.626111048 492.633963086 161.722752121 476.702784374 54 438 c 1
 54 557 l 1
 54 584 l 1
173.758789062 199.4296875 m 0
 174.5390625 164.064453125 218.57421875 156.428710938 277.526367188 156.428710938 c 0
 336.4765625 156.428710938 415.34375 159.451171875 413.00390625 199.639648438 c 0
 410.852539062 236.581054688 316.537109375 258.28125 279.8671875 259.084960938 c 0
 240.858398438 259.940429688 173.03125 232.385742188 173.758789062 199.4296875 c 0
476 800 m 1
 282 800 l 1
 208 660 l 1
 262 660 l 1
 476 800 l 1
EndSplineSet
Validated: 41
EndChar

StartChar: acircumflex
Encoding: 226 226 95
Width: 695
Flags: W
HStem: -0.145508 156.574<184.926 403.486> 259.085 137.06<209.225 372.32>
VStem: -0.398438 174.157<169.344 230.085>
LayerCount: 2
Fore
SplineSet
54 584 m 1
 351.083007812 729.564453125 604.750976562 606.780273438 605 453 c 0
 617 1 617 0 617 0 c 1
 595 0 l 1
 472 0 l 1
 460 0 l 1
 462.047252703 56.6249445567 l 1
 427.468880441 14.9150345998 378.995472082 -0.1455078125 279.53515625 -0.1455078125 c 0
 102.174804688 -0.1455078125 -0.3984375 64.3017578125 -0.3984375 186.091796875 c 0
 -0.3984375 307.881835938 102.174804688 396.14453125 279.53515625 396.14453125 c 0
 308.684555405 396.14453125 338.885120248 391.293155638 367.04271278 384.097351986 c 0
 399.337653983 377.373963068 429.981835979 368.027612821 452.900992801 358.435658161 c 1
 450.901226866 427.715012623 420.21393486 492.363852162 302.8320956 492.897230324 c 0
 242.626111048 492.633963086 161.722752121 476.702784374 54 438 c 1
 54 546 l 1
 54 584 l 1
173.758789062 199.4296875 m 0
 174.5390625 164.064453125 218.57421875 156.428710938 277.526367188 156.428710938 c 0
 336.4765625 156.428710938 415.34375 159.451171875 413.00390625 199.639648438 c 0
 410.852539062 236.581054688 316.537109375 258.28125 279.8671875 259.084960938 c 0
 240.858398438 259.940429688 173.03125 232.385742188 173.758789062 199.4296875 c 0
81 698 m 1
 81 620 l 1
 305 718 l 1
 538 618 l 1
 540 695 l 1
 355 800 l 1
 249 800 l 1
 81 698 l 1
EndSplineSet
Validated: 41
EndChar

StartChar: atilde
Encoding: 227 227 96
Width: 695
Flags: W
HStem: -0.145508 156.574<184.926 403.486> 259.085 137.06<209.225 372.32>
VStem: -0.398438 174.157<169.344 230.085>
LayerCount: 2
Fore
SplineSet
54 584 m 1
 351.083007812 729.564453125 604.750976562 606.780273438 605 453 c 0
 617 1 617 0 617 0 c 1
 595 0 l 1
 472 0 l 1
 460 0 l 1
 462.047252703 56.6249445567 l 1
 427.468880441 14.9150345998 378.995472082 -0.1455078125 279.53515625 -0.1455078125 c 0
 102.174804688 -0.1455078125 -0.3984375 64.3017578125 -0.3984375 186.091796875 c 0
 -0.3984375 307.881835938 102.174804688 396.14453125 279.53515625 396.14453125 c 0
 308.684555405 396.14453125 338.885120248 391.293155638 367.04271278 384.097351986 c 0
 399.337653983 377.373963068 429.981835979 368.027612821 452.900992801 358.435658161 c 1
 450.901226866 427.715012623 420.21393486 492.363852162 302.8320956 492.897230324 c 0
 242.626111048 492.633963086 161.722752121 476.702784374 54 438 c 1
 54 557 l 1
 54 584 l 1
173.758789062 199.4296875 m 0
 174.5390625 164.064453125 218.57421875 156.428710938 277.526367188 156.428710938 c 0
 336.4765625 156.428710938 415.34375 159.451171875 413.00390625 199.639648438 c 0
 410.852539062 236.581054688 316.537109375 258.28125 279.8671875 259.084960938 c 0
 240.858398438 259.940429688 173.03125 232.385742188 173.758789062 199.4296875 c 0
123.580078125 790 m 1
 176.3046875 837.544921875 241.2578125 839.483398438 320 790 c 0
 389.674804688 749.6328125 454.849609375 740.44140625 511.540039062 790 c 1
 511.540039062 689 l 1
 454.498046875 632.611328125 389.770507812 650.88671875 323.049804688 689 c 1
 259.188476562 730.280273438 193.896484375 753.365234375 123.580078125 690.299804688 c 1
 123.580078125 790 l 1
EndSplineSet
Validated: 33
EndChar

StartChar: adieresis
Encoding: 228 228 97
Width: 695
Flags: W
HStem: -0.145508 156.574<184.926 403.486> 259.085 137.06<209.225 372.32> 660 124<153.2 246.8 387.2 480.8>
VStem: -0.398438 174.157<169.344 230.085> 138 124<675.2 768.8> 372 124<675.2 768.8>
LayerCount: 2
Fore
SplineSet
54 584 m 1xf4
 351.083007812 729.564453125 604.750976562 606.780273438 605 453 c 0
 617 1 617 0 617 0 c 1
 595 0 l 1
 472 0 l 1
 460 0 l 1
 462.047252703 56.6249445567 l 1
 427.468880441 14.9150345998 378.995472082 -0.1455078125 279.53515625 -0.1455078125 c 0
 102.174804688 -0.1455078125 -0.3984375 64.3017578125 -0.3984375 186.091796875 c 0
 -0.3984375 307.881835938 102.174804688 396.14453125 279.53515625 396.14453125 c 0
 308.684555405 396.14453125 338.885120248 391.293155638 367.04271278 384.097351986 c 0
 399.337653983 377.373963068 429.981835979 368.027612821 452.900992801 358.435658161 c 1
 450.901226866 427.715012623 420.21393486 492.363852162 302.8320956 492.897230324 c 0
 242.626111048 492.633963086 161.722752121 476.702784374 54 438 c 1
 54 557 l 1
 54 584 l 1xf4
173.758789062 199.4296875 m 0
 174.5390625 164.064453125 218.57421875 156.428710938 277.526367188 156.428710938 c 0
 336.4765625 156.428710938 415.34375 159.451171875 413.00390625 199.639648438 c 0
 410.852539062 236.581054688 316.537109375 258.28125 279.8671875 259.084960938 c 0
 240.858398438 259.940429688 173.03125 232.385742188 173.758789062 199.4296875 c 0
372 722 m 0
 372 756 400 784 434 784 c 0
 468 784 496 756 496 722 c 0
 496 688 468 660 434 660 c 0
 400 660 372 688 372 722 c 0
138 722 m 0xec
 138 756 166 784 200 784 c 0
 234 784 262 756 262 722 c 0
 262 688 234 660 200 660 c 0
 166 660 138 688 138 722 c 0xec
EndSplineSet
Validated: 33
EndChar

StartChar: aring
Encoding: 229 229 98
Width: 695
Flags: W
HStem: -0.145508 156.574<184.926 403.486> 259.085 137.06<209.225 372.32> 686.996 47.084<291.759 364.199> 816.148 52.3457<291.759 364.199>
VStem: -0.398438 174.157<169.344 230.085> 236.198 50.7676<739.704 811.121> 369.033 48.6631<739.704 811.121>
LayerCount: 2
Fore
SplineSet
54 584 m 1
 351.083007812 729.564453125 604.750976562 606.780273438 605 453 c 0
 617 1 617 0 617 0 c 1
 595 0 l 1
 472 0 l 1
 460 0 l 1
 462.047252703 56.6249445567 l 1
 427.468880441 14.9150345998 378.995472082 -0.1455078125 279.53515625 -0.1455078125 c 0
 102.174804688 -0.1455078125 -0.3984375 64.3017578125 -0.3984375 186.091796875 c 0
 -0.3984375 307.881835938 102.174804688 396.14453125 279.53515625 396.14453125 c 0
 308.684555405 396.14453125 338.885120248 391.293155638 367.04271278 384.097351986 c 0
 399.337653983 377.373963068 429.981835979 368.027612821 452.900992801 358.435658161 c 1
 450.901226866 427.715012623 420.21393486 492.363852162 302.8320956 492.897230324 c 0
 242.626111048 492.633963086 161.722752121 476.702784374 54 438 c 1
 54 557 l 1
 54 584 l 1
173.758789062 199.4296875 m 0
 174.5390625 164.064453125 218.57421875 156.428710938 277.526367188 156.428710938 c 0
 336.4765625 156.428710938 415.34375 159.451171875 413.00390625 199.639648438 c 0
 410.852539062 236.581054688 316.537109375 258.28125 279.8671875 259.084960938 c 0
 240.858398438 259.940429688 173.03125 232.385742188 173.758789062 199.4296875 c 0
286.965820312 775.114257812 m 0
 286.965820312 752.033203125 304.916992188 734.080078125 328 734.080078125 c 0
 351.081054688 734.080078125 369.033203125 752.033203125 369.033203125 775.114257812 c 0
 369.033203125 798.1953125 351.081054688 816.1484375 328 816.1484375 c 0
 304.916992188 816.1484375 286.965820312 798.1953125 286.965820312 775.114257812 c 0
236.198242188 777.745117188 m 0
 236.198242188 827.721679688 276.969726562 868.494140625 326.947265625 868.494140625 c 0
 376.92578125 868.494140625 417.696289062 827.721679688 417.696289062 777.745117188 c 0
 417.696289062 727.766601562 376.92578125 686.99609375 326.947265625 686.99609375 c 0
 276.969726562 686.99609375 236.198242188 727.766601562 236.198242188 777.745117188 c 0
EndSplineSet
Validated: 33
EndChar

StartChar: ae
Encoding: 230 230 99
Width: 1178
Flags: W
HStem: -0.145759 154.646<181.9 402.414 701.609 968.735> 257.156 138.988<202.489 370.793> 451.412 173.708<701.974 847.305>
VStem: -0.398438 172.631<166.172 229.871>
LayerCount: 2
Fore
SplineSet
303.447818639 0.1849335295 m 0
 384.870847301 2.64617636036 447.474394128 21.1024886119 526.634765625 128.096679688 c 1
 541.937242355 107.500920331 559.730734715 88.912478562 579.213200236 72.6748118652 c 0
 633.569045297 27.3715628361 701.072516643 0.367081598246 764.304090403 -0.879391054135 c 0
 776.045629191 -1.10961864835 787.188190041 -1.22060273709 797.791075484 -1.22060273709 c 0
 971.798229718 -1.22060273714 1000.45415804 28.6708340795 1035.32910156 54.1201171875 c 1
 1033.32910156 196.120117188 l 1
 951.329101562 169.120117188 897.329101562 154.120117188 795.329101562 157.120117188 c 0
 712.872070312 159.544921875 664.283203125 181.831054688 648.686523438 249.120117188 c 1
 1054.24023438 249.120117188 l 1
 1075.27929688 248.759765625 l 1
 1077.08300781 263.61328125 1078 279.892578125 1078 295.53125 c 0
 1078 468.685546875 940.350585938 625.120117188 768.329101562 625.120117188 c 0
 690.99066167 625.120117188 623.892519564 593.609334018 573.049602782 543.864339241 c 1
 495.916906991 646.611098263 288.481401506 698.890976867 54 584 c 1
 54 438 l 1
 54.1051699802 438.037785622 54.2103132072 438.075549538 54.3154296875 438.113291756 c 1
 54.3154296875 438 l 1
 162.873002725 477.002720852 242.892887626 492.879520559 301.486249037 492.900531489 c 0
 423.062065121 492.855409448 452.442714853 424.559761242 453 353 c 1
 411.508789062 373.126953125 343.028320312 396.14453125 279.53515625 396.14453125 c 0
 102.174804688 396.14453125 -0.3984375 307.881835938 -0.3984375 186.091796875 c 0
 -0.3984375 168.486134726 1.76414638181 152.454782362 5.99708322718 137.856128906 c 0
 30.4194426702 47.3748716138 127.448567323 -0.235333542451 279.537613311 -0.145758876539 c 0
 287.385279166 -0.9458862172 295.367958151 -0.809308023031 303.447818639 0.1849335295 c 0
172.232421875 197.500976562 m 0
 171.504882812 230.45703125 239.33203125 258.01171875 278.340820312 257.15625 c 0
 315.010742188 256.352539062 409.326171875 234.65234375 411.477539062 197.7109375 c 0
 413.817382812 157.522460938 334.950195312 154.5 276 154.5 c 0
 217.047851562 154.5 173.012695312 162.135742188 172.232421875 197.500976562 c 0
662.155273438 378 m 1
 677.595703125 422.745117188 719.735351562 451.412109375 773.170898438 451.412109375 c 0
 826.815429688 451.412109375 875.741210938 422.8359375 892 378 c 1
 662.155273438 378 l 1
EndSplineSet
Validated: 41
EndChar

StartChar: ccedilla
Encoding: 231 231 100
Width: 650
Flags: W
HStem: 0.00578901 162.103<247.495 265 352.68 477.543> 430.963 184.037<231.376 453.431>
VStem: -0.0136719 180.014<227.115 386.945>
LayerCount: 2
Fore
SplineSet
503.276367188 28.4658203125 m 1025
503.276367188 28.4658203125 m 1025
368.407411459 -160.40859394 m 0
 343.399915407 -173.22757052 308.448374416 -176.725732484 265 -162 c 1
 266 -101 l 1
 273.956622859 -104.805341368 281.195198301 -106.30694727 287.368999353 -106.30694727 c 0
 300.629923649 -106.30694727 308.97837776 -99.3791001158 308.97837776 -93.472323842 c 0
 308.97837776 -89.083046484 304.36848237 -85.2575896707 293.73882301 -85.2575896707 c 0
 286.830706648 -85.2575896707 277.380095579 -86.8733014736 265 -91 c 1
 265 -71 l 1
 265 0.00578901014391 l 1
 233.395488289 0.188981833122 204.36307918 4.71624411287 178.042394932 13.0500844718 c 0
 63.2036417189 49.4109979149 -0.0136718123236 158.234926468 -0.013671875 294.879882812 c 0
 -0.013671875 464.072265625 95.68359375 615 271 615 c 0
 468 615 512 568 543 544 c 1
 543 408 l 1
 543 373 l 1
 543 373 503.943359375 435.612304688 323.091796875 430.962890625 c 0
 222.971679688 428.388671875 178 397 180 294 c 0
 181 220 244.48828125 166.078125 323.091796875 162.108398438 c 0
 486.842773438 153.837890625 533.435546875 222.329101562 550 228 c 1
 550 207 l 1
 550 55 l 1
 516.126509192 39.4533922135 493.562301115 10.5443535931 352.680075768 2.26755062166 c 1
 350 -29 l 1
 384.127545296 -33.7401303622 403.726694263 -52.0883192624 410.410050057 -74.1240161572 c 0
 413.524439046 -81.165497539 415.032226122 -88.5972943139 415.032225823 -96.0844688154 c 0
 415.032225823 -121.048699071 398.269660624 -146.628580308 368.407411459 -160.40859394 c 0
EndSplineSet
Validated: 33
EndChar

StartChar: ntilde
Encoding: 241 241 101
Width: 677
Flags: W
LayerCount: 2
Fore
SplineSet
101.580078125 790 m 1
 154.3046875 837.544921875 219.2578125 839.483398438 298 790 c 0
 367.674804688 749.6328125 432.849609375 740.44140625 489.540039062 790 c 1
 489.540039062 689 l 1
 432.498046875 632.611328125 367.770507812 650.88671875 301.049804688 689 c 1
 237.188476562 730.280273438 171.896484375 753.365234375 101.580078125 690.299804688 c 1
 101.580078125 790 l 1
135 608 m 1
 0 608 l 1
 0 0 l 1
 138 0 l 1
 177 0 l 1
 175.424804688 295.202148438 l 1
 181.784179688 450.918945312 423.81640625 512.322265625 415 342 c 1
 415.342773438 342.068359375 l 1
 420 0 l 1
 448 0 l 1
 577 0 l 1
 589 0 l 1
 585 404 l 2
 584 509 513 608 382 612 c 0
 327.026112767 613.84776765 287.513463198 608.11949995 251.993300872 585.905488751 c 0
 224.176063304 572.689473108 198.125558667 554.403116678 174.458310808 530.857124757 c 1
 174 608 l 1
 135 608 l 1
EndSplineSet
Validated: 41
EndChar

StartChar: ograve
Encoding: 242 242 102
Width: 650
Flags: W
HStem: 0 168.064<212.86 330.338> 436.887 177.113<215.232 327.056> 780 20G<115 319.571>
VStem: 0.31543 168.715<216.194 387.161> 375.579 174.421<218.202 383.766>
LayerCount: 2
Fore
SplineSet
169.030273438 298.387695312 m 0
 169.030273438 226.474609375 204.989257812 168.064453125 270.8671875 168.064453125 c 0
 336.745117188 168.064453125 375.579101562 227.125 375.579101562 299.0390625 c 0
 375.579101562 370.952148438 336.745117188 436.88671875 270.8671875 436.88671875 c 0
 204.989257812 436.88671875 169.030273438 370.301757812 169.030273438 298.387695312 c 0
115 800 m 1
 309 800 l 1
 383 660 l 1
 329 660 l 1
 115 800 l 1
271.329101562 614 m 0
 443.350585938 614 550 469.565429688 550 296.411132812 c 0
 550 127.21875 442.646484375 0 267.329101562 0 c 0
 96.583984375 0 0.3154296875 126.256835938 0.3154296875 294.879882812 c 0
 0.3154296875 464.072265625 96.0126953125 614 271.329101562 614 c 0
EndSplineSet
Validated: 1
EndChar

StartChar: oacute
Encoding: 243 243 103
Width: 650
Flags: W
HStem: 0 168.064<212.86 330.338> 436.887 177.113<215.232 327.056>
VStem: 0.31543 168.715<216.194 387.161> 375.579 174.421<218.202 383.766>
LayerCount: 2
Fore
SplineSet
169.030273438 298.387695312 m 0
 169.030273438 226.474609375 204.989257812 168.064453125 270.8671875 168.064453125 c 0
 336.745117188 168.064453125 375.579101562 227.125 375.579101562 299.0390625 c 0
 375.579101562 370.952148438 336.745117188 436.88671875 270.8671875 436.88671875 c 0
 204.989257812 436.88671875 169.030273438 370.301757812 169.030273438 298.387695312 c 0
445 800 m 1
 251 800 l 1
 177 660 l 1
 231 660 l 1
 445 800 l 1
271.329101562 614 m 0
 443.350585938 614 550 469.565429688 550 296.411132812 c 0
 550 127.21875 442.646484375 0 267.329101562 0 c 0
 96.583984375 0 0.3154296875 126.256835938 0.3154296875 294.879882812 c 0
 0.3154296875 464.072265625 96.0126953125 614 271.329101562 614 c 0
EndSplineSet
Validated: 9
EndChar

StartChar: ocircumflex
Encoding: 244 244 104
Width: 650
Flags: W
HStem: 0 168.064<212.86 330.338> 436.887 177.113<215.232 327.056>
VStem: 0.31543 168.715<216.194 387.161> 375.579 174.421<218.202 383.766>
LayerCount: 2
Fore
SplineSet
169.030273438 298.387695312 m 0
 169.030273438 226.474609375 204.989257812 168.064453125 270.8671875 168.064453125 c 0
 336.745117188 168.064453125 375.579101562 227.125 375.579101562 299.0390625 c 0
 375.579101562 370.952148438 336.745117188 436.88671875 270.8671875 436.88671875 c 0
 204.989257812 436.88671875 169.030273438 370.301757812 169.030273438 298.387695312 c 0
42 698 m 1
 42 620 l 1
 266 718 l 1
 499 618 l 1
 501 695 l 1
 316 800 l 1
 210 800 l 1
 42 698 l 1
271.329101562 614 m 0
 443.350585938 614 550 469.565429688 550 296.411132812 c 0
 550 127.21875 442.646484375 0 267.329101562 0 c 0
 96.583984375 0 0.3154296875 126.256835938 0.3154296875 294.879882812 c 0
 0.3154296875 464.072265625 96.0126953125 614 271.329101562 614 c 0
EndSplineSet
Validated: 9
EndChar

StartChar: otilde
Encoding: 245 245 105
Width: 650
Flags: W
HStem: 0 168.064<212.86 330.338> 436.887 177.113<215.232 327.056>
VStem: 0.31543 168.715<216.194 387.161> 375.579 174.421<218.202 383.766>
LayerCount: 2
Fore
SplineSet
169.030273438 298.387695312 m 0
 169.030273438 226.474609375 204.989257812 168.064453125 270.8671875 168.064453125 c 0
 336.745117188 168.064453125 375.579101562 227.125 375.579101562 299.0390625 c 0
 375.579101562 370.952148438 336.745117188 436.88671875 270.8671875 436.88671875 c 0
 204.989257812 436.88671875 169.030273438 370.301757812 169.030273438 298.387695312 c 0
87.580078125 790 m 1
 140.3046875 837.544921875 205.2578125 839.483398438 284 790 c 0
 353.674804688 749.6328125 418.849609375 740.44140625 475.540039062 790 c 1
 475.540039062 689 l 1
 418.498046875 632.611328125 353.770507812 650.88671875 287.049804688 689 c 1
 223.188476562 730.280273438 157.896484375 753.365234375 87.580078125 690.299804688 c 1
 87.580078125 790 l 1
271.329101562 614 m 0
 443.350585938 614 550 469.565429688 550 296.411132812 c 0
 550 127.21875 442.646484375 0 267.329101562 0 c 0
 96.583984375 0 0.3154296875 126.256835938 0.3154296875 294.879882812 c 0
 0.3154296875 464.072265625 96.0126953125 614 271.329101562 614 c 0
EndSplineSet
Validated: 33
EndChar

StartChar: odieresis
Encoding: 246 246 106
Width: 650
Flags: W
HStem: 0 168.064<212.86 330.338> 436.887 177.113<215.232 327.056> 660 124<114.2 207.8 348.2 441.8>
VStem: 0.31543 168.715<216.194 387.161> 99 124<675.2 768.8> 333 124<675.2 768.8> 375.579 174.421<218.202 383.766>
LayerCount: 2
Fore
SplineSet
169.030273438 298.387695312 m 0xf2
 169.030273438 226.474609375 204.989257812 168.064453125 270.8671875 168.064453125 c 0
 336.745117188 168.064453125 375.579101562 227.125 375.579101562 299.0390625 c 0
 375.579101562 370.952148438 336.745117188 436.88671875 270.8671875 436.88671875 c 0
 204.989257812 436.88671875 169.030273438 370.301757812 169.030273438 298.387695312 c 0xf2
333 722 m 0xe4
 333 756 361 784 395 784 c 0
 429 784 457 756 457 722 c 0
 457 688 429 660 395 660 c 0
 361 660 333 688 333 722 c 0xe4
99 722 m 0xe8
 99 756 127 784 161 784 c 0
 195 784 223 756 223 722 c 0
 223 688 195 660 161 660 c 0
 127 660 99 688 99 722 c 0xe8
271.329101562 614 m 0
 443.350585938 614 550 469.565429688 550 296.411132812 c 0
 550 127.21875 442.646484375 0 267.329101562 0 c 0
 96.583984375 0 0.3154296875 126.256835938 0.3154296875 294.879882812 c 0xf2
 0.3154296875 464.072265625 96.0126953125 614 271.329101562 614 c 0
EndSplineSet
Validated: 1
EndChar

StartChar: oslash
Encoding: 248 248 107
Width: 650
Flags: W
HStem: 0 21G<263.24 354.988> 594 20G<183.671 271.91>
VStem: 0.463408 168.567<256.224 386.738> 375.579 174.421<218.287 355.242>
LayerCount: 2
Fore
SplineSet
439.135435913 555.9310407 m 0
 501.276097122 505.07087597 539.797722622 425.2559623 548.240245014 334.596129971 c 0
 549.407720675 322.059219473 550 309.314923886 550 296.411132812 c 0
 550 127.21875 442.646484375 0 267.329101562 0 c 0
 259.151878943 0 251.145474736 0.289580929683 243.31228264 0.859527986903 c 1
 213.022460938 -86 l 1
 56.0224609375 -86 l 1
 103.904232702 51.8004048129 l 1
 39.0096887908 102.066770395 3.03298084191 185.055826649 0.463407973228 283.485532281 c 0
 0.36484024811 287.261254031 0.3154296875 291.059696033 0.3154296875 294.879882812 c 0
 0.3154296875 464.072265625 96.0126953125 614 271.329101562 614 c 0
 272.491274475 614 273.650463598 613.993407544 274.806656201 613.980258313 c 0
 282.959517847 613.88753686 290.963382732 613.46879109 298.81378797 612.736532028 c 1
 334 714 l 1
 492 714 l 1
 437.375680927 557.358517659 l 2
 437.964351996 556.88526378 438.550938783 556.409433103 439.135435913 555.9310407 c 0
174.086475142 253.780011299 m 1
 235.128105486 429.453572696 l 1
 192.097299008 410.164779608 169.030273438 355.985497665 169.030273438 298.387695312 c 0
 169.030273438 282.723054792 170.736483236 267.699111759 174.086475142 253.780011299 c 1
303.497983486 173.448908618 m 1
 349.373515487 189.562464506 375.579101562 239.963918913 375.579101562 299.0390625 c 0
 375.579101562 318.78075056 372.652492784 338.071885409 367.043193493 355.672065997 c 1
 303.497983486 173.448908618 l 1
EndSplineSet
Validated: 1
EndChar

StartChar: eth
Encoding: 240 240 108
Width: 650
Flags: W
HStem: 0 172.2<206.444 338.352> 429.612 184.388<208.795 337.169>
VStem: 0.31543 161.693<218.449 379.64> 385.73 164.27<220.429 377.695>
LayerCount: 2
Fore
SplineSet
162.008789062 296.9921875 m 0
 162.008789062 228.130859375 200.95703125 172.200195312 272.311523438 172.200195312 c 0
 343.666015625 172.200195312 385.73046875 228.754882812 385.73046875 297.616210938 c 0
 385.73046875 366.4765625 343.666015625 429.612304688 272.311523438 429.612304688 c 0
 200.95703125 429.612304688 162.008789062 365.854492188 162.008789062 296.9921875 c 0
550 296.411132812 m 0
 550 127.21875 442.646484375 0 267.329101562 0 c 0
 96.583984375 0 0.3154296875 126.256835938 0.3154296875 294.879882812 c 0
 0.3154296875 464.072265625 96.0126953125 614 271.329101562 614 c 0
 301.523305531 614 329.703441977 609.550072443 355.646290222 601.275983027 c 1
 333.540702451 641.602626561 323 652 287 679 c 1
 56 572 l 1
 56 699 l 1
 201.238661849 759.419283329 l 1
 174.369404378 773.544676237 156 778 125 790 c 1
 126 943 l 1
 185.805818229 926.457965171 269.206819931 889.04680252 346.331595447 819.777943706 c 1
 556 907 l 1
 556 792 l 1
 406.489257812 725.916015625 l 1
 491.26171875 622.73046875 550 501.013705448 550 296.411132812 c 0
EndSplineSet
Validated: 1
EndChar

StartChar: ugrave
Encoding: 249 249 109
Width: 678
Flags: W
HStem: 780 20G<148 352.571>
LayerCount: 2
Fore
SplineSet
589 0 m 1
 589 608 l 1
 578 608 l 1
 440 608 l 1
 412 608 l 1
 413.575195312 312.797851562 l 1
 407.215820312 157.081054688 165.18359375 95.677734375 174 266 c 1
 173.657226562 265.931640625 l 1
 169 608 l 1
 130 608 l 1
 0 608 l 1
 0 204 l 2
 1 99 65 0 196 -4 c 0
 201.19282204 -4.17453975077 206.362088647 -4.21988126661 211.505074214 -4.13518763243 c 0
 281.043340934 -5.96436971736 325.587681821 5.11356580656 369.451253187 47.986738409 c 0
 385.304046239 59.5400333705 400.359612482 73.0571665094 414.473726116 88.582420269 c 1
 415 0 l 1
 443 0 l 1
 578 0 l 1
 589 0 l 1
148 800 m 1
 342 800 l 1
 416 660 l 1
 362 660 l 1
 148 800 l 1
EndSplineSet
Validated: 41
EndChar

StartChar: uacute
Encoding: 250 250 110
Width: 678
Flags: W
LayerCount: 2
Fore
SplineSet
589 0 m 1
 589 608 l 1
 578 608 l 1
 440 608 l 1
 412 608 l 1
 413.575195312 312.797851562 l 1
 407.215820312 157.081054688 165.18359375 95.677734375 174 266 c 1
 173.657226562 265.931640625 l 1
 169 608 l 1
 130 608 l 1
 0 608 l 1
 0 204 l 2
 1 99 65 0 196 -4 c 0
 201.19282204 -4.17453975077 206.362088647 -4.21988126661 211.505074214 -4.13518763243 c 0
 281.043340934 -5.96436971736 325.587681821 5.11356580656 369.451253187 47.986738409 c 0
 385.304046239 59.5400333705 400.359612482 73.0571665094 414.473726116 88.582420269 c 1
 415 0 l 1
 443 0 l 1
 578 0 l 1
 589 0 l 1
476 800 m 1
 282 800 l 1
 208 660 l 1
 262 660 l 1
 476 800 l 1
EndSplineSet
Validated: 41
EndChar

StartChar: ucircumflex
Encoding: 251 251 111
Width: 678
Flags: W
LayerCount: 2
Fore
SplineSet
589 0 m 1
 589 608 l 1
 578 608 l 1
 440 608 l 1
 412 608 l 1
 413.575195312 312.797851562 l 1
 407.215820312 157.081054688 165.18359375 95.677734375 174 266 c 1
 173.657226562 265.931640625 l 1
 169 608 l 1
 130 608 l 1
 0 608 l 1
 0 204 l 2
 1 99 65 0 196 -4 c 0
 201.19282204 -4.17453975077 206.362088647 -4.21988126661 211.505074214 -4.13518763243 c 0
 281.043340934 -5.96436971736 325.587681821 5.11356580656 369.451253187 47.986738409 c 0
 385.304046239 59.5400333705 400.359612482 73.0571665094 414.473726116 88.582420269 c 1
 415 0 l 1
 443 0 l 1
 578 0 l 1
 589 0 l 1
67 753 m 1
 67 675 l 1
 291 773 l 1
 524 673 l 1
 526 750 l 1
 341 855 l 1
 235 855 l 1
 67 753 l 1
EndSplineSet
Validated: 41
EndChar

StartChar: udieresis
Encoding: 252 252 112
Width: 678
Flags: W
HStem: 685 124<121.2 214.8 355.2 448.8>
VStem: 106 124<700.2 793.8> 340 124<700.2 793.8>
LayerCount: 2
Fore
SplineSet
589 0 m 1
 589 608 l 1
 578 608 l 1
 440 608 l 1
 412 608 l 1
 413.575195312 312.797851562 l 1
 407.215820312 157.081054688 165.18359375 95.677734375 174 266 c 1
 173.657226562 265.931640625 l 1
 169 608 l 1
 130 608 l 1
 0 608 l 1
 0 204 l 2
 1 99 65 0 196 -4 c 0
 201.19282204 -4.17453975077 206.362088647 -4.21988126661 211.505074214 -4.13518763243 c 0
 281.043340934 -5.96436971736 325.587681821 5.11356580656 369.451253187 47.986738409 c 0
 385.304046239 59.5400333705 400.359612482 73.0571665094 414.473726116 88.582420269 c 1
 415 0 l 1
 443 0 l 1
 578 0 l 1
 589 0 l 1
340 747 m 0
 340 781 368 809 402 809 c 0
 436 809 464 781 464 747 c 0
 464 713 436 685 402 685 c 0
 368 685 340 713 340 747 c 0
106 747 m 0
 106 781 134 809 168 809 c 0
 202 809 230 781 230 747 c 0
 230 713 202 685 168 685 c 0
 134 685 106 713 106 747 c 0
EndSplineSet
Validated: 41
EndChar

StartChar: yacute
Encoding: 253 253 113
Width: 724
Flags: W
HStem: 588 20G<0 186.977 451.692 624>
LayerCount: 2
Fore
SplineSet
0 608 m 1
 180 608 l 1
 326 189.5 l 1
 458 608 l 1
 624 608 l 1
 420 17 l 1
 419.735351562 17 l 1
 302.807617188 -266.740234375 138 -192 0 -133 c 1
 0 50 l 1
 64.537109375 17.72265625 218 -50 259.092773438 17 c 1
 228 17 l 1
 0 608 l 1
476 800 m 1
 282 800 l 1
 208 660 l 1
 262 660 l 1
 476 800 l 1
EndSplineSet
Validated: 41
EndChar

StartChar: thorn
Encoding: 254 254 114
Width: 691
Flags: W
HStem: 0 171.245<240.678 389.768> 443 177.502<251.936 383.141>
VStem: -1.34082 177.91<232.584 369.396> 445.164 145.836<236.07 375.129>
LayerCount: 2
Fore
SplineSet
804 292 m 1054
176.569335938 302.532226562 m 4
 176.569335938 366.256835938 239.40234375 443.768554688 330 443 c 4
 393.721679688 442.4609375 445.1640625 362.41796875 445.1640625 298.694335938 c 4
 445.1640625 234.969726562 393.717773438 172.161132812 330 171.245117188 c 4
 223.280273438 169.709960938 176.569335938 238.80859375 176.569335938 302.532226562 c 4
591.000427505 286.443258676 m 4
 591.000427505 293.147969115 590.887774783 299.999275211 590.659179688 307 c 4
 587.03125 418.102539062 520.659179688 608 343.659179688 620 c 4
 338.662852036 620.338747039 333.743983648 620.50315485 328.905115235 620.501682061 c 4
 256.244729314 620.524377285 191.944285769 584.459408428 159.659179688 539.431681521 c 5
 159.659179688 718 l 5
 142.659179688 718 l 5
 -0.3408203125 718 l 5
 -1.3408203125 -96 l 5
 -0.3408203125 -96 l 5
 144.659179688 -96 l 5
 162.659179688 -96 l 5
 161.795651806 75.8420484452 l 5
 194.971249917 29.8815173668 242.585965195 -3.21617732446e-15 329.659179688 0 c 4
 460.801637457 0 591.000427505 58.5073987516 591.000427505 286.443258676 c 4
EndSplineSet
Validated: 41
EndChar

StartChar: ydieresis
Encoding: 255 255 115
Width: 724
Flags: W
HStem: 588 20G<0 186.977 451.692 624> 660 124<153.2 246.8 387.2 480.8>
VStem: 138 124<675.2 768.8> 372 124<675.2 768.8>
LayerCount: 2
Fore
SplineSet
0 608 m 1
 180 608 l 1
 326 189.5 l 1
 458 608 l 1
 624 608 l 1
 420 17 l 1
 419.735351562 17 l 1
 302.807617188 -266.740234375 138 -192 0 -133 c 1
 0 50 l 1
 64.537109375 17.72265625 218 -50 259.092773438 17 c 1
 228 17 l 1
 0 608 l 1
372 722 m 0
 372 756 400 784 434 784 c 0
 468 784 496 756 496 722 c 0
 496 688 468 660 434 660 c 0
 400 660 372 688 372 722 c 0
138 722 m 0
 138 756 166 784 200 784 c 0
 234 784 262 756 262 722 c 0
 262 688 234 660 200 660 c 0
 166 660 138 688 138 722 c 0
EndSplineSet
Validated: 33
EndChar

StartChar: exclamdown
Encoding: 161 161 116
Width: 244
Flags: W
HStem: 635.5 175.5<14.982 132.861>
VStem: -16 180<666.482 781.61> -7 158<0.5 180.065> 16 117<410.935 590.5>
LayerCount: 2
Fore
SplineSet
-16 725.5 m 4xc0
 -16 675.5 24 635.5 74 635.5 c 0
 124 635.5 164 675.5 164 725.5 c 0
 164 774.18472064 124.418847484 811.000000109 72 811 c 0
 20.6132174437 811 -16 776.873041293 -16 725.5 c 4xc0
16 590.5 m 1x90
 -7 0.5 l 1
 151 0.5 l 1xa0
 133 590.5 l 1
 16 590.5 l 1x90
EndSplineSet
Validated: 9
EndChar

StartChar: cent
Encoding: 162 162 117
Width: 650
Flags: W
HStem: 138.039 127.38<178.327 224 362 468.282> 467.261 138.192<177.918 224 362 469.153>
VStem: -4.01367 150.014<297.951 436.455> 224 138<15 139.172 267.611 467.261 603.491 726>
LayerCount: 2
Fore
SplineSet
499.276367188 158.239257812 m 1025
539 551.377929688 m 1
 539 416.91796875 l 1
 539 416.91796875 480.130067048 454.772501316 362 467.309756313 c 1
 362 265.418448828 l 1
 469.113695258 276.75625173 532.89921611 312.043314323 546 315.620117188 c 1
 546 179.400390625 l 1
 513.223534406 167.403686432 491.035689529 145.429345325 362 138.038626179 c 1
 362 15 l 1
 224 15 l 1
 224 137.066071691 l 1
 77.6681206905 148.903859275 -4.013671875 228.833931661 -4.013671875 352.705078125 c 0
 -4.013671875 476.158307183 76.0956620976 587.41782208 224 605.45242907 c 1
 224 726 l 1
 362 726 l 1
 362 604.464633172 l 1
 479.928330164 594.682868111 513.769756782 566.955284048 539 551.377929688 c 1
224 467.260786368 m 1
 160.677585765 456.059279709 144.334605033 420.402847795 146 352.002929688 c 0
 146.793161989 305.194753745 173.686848195 278.309699444 224 267.610755055 c 1
 224 467.260786368 l 1
EndSplineSet
Validated: 33
EndChar

StartChar: dieresis
Encoding: 168 168 118
Width: 458
Flags: W
HStem: 660 124<15.2003 108.8 249.2 342.8>
VStem: 0 124<675.2 768.8> 234 124<675.2 768.8>
LayerCount: 2
Fore
SplineSet
234 722 m 0
 234 756 262 784 296 784 c 0
 330 784 358 756 358 722 c 0
 358 688 330 660 296 660 c 0
 262 660 234 688 234 722 c 0
0 722 m 0
 0 756 28 784 62 784 c 0
 96 784 124 756 124 722 c 0
 124 688 96 660 62 660 c 0
 28 660 0 688 0 722 c 0
EndSplineSet
Validated: 1
EndChar

StartChar: copyright
Encoding: 169 169 119
Width: 382
Flags: W
HStem: 475.29 18.0801<99.3298 185.157> 666.203 33.8428<110.799 198.372> 757.79 19.21<96.2777 186.566>
VStem: 0.31543 17.9346<577.509 674.216> 75.6416 29.3184<591.985 660.089> 265.12 16.8799<579.018 670.947>
LayerCount: 2
Fore
SplineSet
18.25 625.580078125 m 4
 18.25 552.6953125 73.6376953125 493.370117188 141.685546875 493.370117188 c 4
 209.733398438 493.370117188 265.120117188 552.6953125 265.120117188 625.580078125 c 4
 265.120117188 698.46484375 209.733398438 757.790039062 141.685546875 757.790039062 c 4
 73.6376953125 757.790039062 18.25 698.46484375 18.25 625.580078125 c 4
0.3154296875 626.14453125 m 4
 0.3154296875 709.200195312 63.615234375 777 141.158203125 777 c 4
 218.700195312 777 282 709.200195312 282 626.14453125 c 4
 282 543.08984375 218.700195312 475.290039062 141.158203125 475.290039062 c 4
 63.615234375 475.290039062 0.3154296875 543.08984375 0.3154296875 626.14453125 c 4
199.041992188 682.763671875 m 5
 199.041992188 649.66015625 l 5
 199.041992188 649.66015625 178.577148438 667.334960938 137.477539062 666.203125 c 4
 114.725585938 665.577148438 104.505859375 646.983398438 104.959960938 621.912109375 c 5
 105.1875 603.900390625 119.615234375 585.176757812 137.477539062 584.2109375 c 4
 174.690429688 582.198242188 196.868164062 599.356445312 200.6328125 600.736328125 c 5
 200.6328125 563.739257812 l 5
 191.5859375 559.291015625 186.088867188 550.350585938 136.3203125 550.350585938 c 4
 97.51953125 550.350585938 75.6416015625 581.083007812 75.6416015625 622.126953125 c 4
 75.6416015625 663.309570312 97.3896484375 700.045898438 137.23046875 700.045898438 c 4
 181.998046875 700.045898438 191.997070312 688.60546875 199.041992188 682.763671875 c 5
190.014648438 557.280273438 m 1029
EndSplineSet
Validated: 33
EndChar

StartChar: guillemotleft
Encoding: 171 171 120
Width: 1002
Flags: W
HStem: 588 20G<445.803 492>
LayerCount: 2
Fore
SplineSet
899 605 m 5
 899 473.5 l 5
 542 332 l 29
 902 182 l 29
 902 70 l 5
 407 270 l 5
 406 388 l 5
 899 605 l 5
492 608 m 29
 492 476.5 l 5
 145 335 l 29
 495 185 l 29
 495 73 l 5
 0 273 l 29
 0 395 l 5
 492 608 l 29
EndSplineSet
Validated: 1
EndChar

StartChar: guillemotright
Encoding: 187 187 121
Width: 1002
Flags: W
LayerCount: 2
Fore
SplineSet
2 605 m 1
 2 473.5 l 1
 359 332 l 25
 -1 182 l 25
 -1 70 l 1
 494 270 l 1
 495 388 l 1
 2 605 l 1
409 608 m 25
 409 476.5 l 1
 756 335 l 25
 406 185 l 25
 406 73 l 1
 901 273 l 25
 901 395 l 1
 409 608 l 25
EndSplineSet
Validated: 9
EndChar

StartChar: multiply
Encoding: 215 215 122
Width: 574
Flags: W
LayerCount: 2
Fore
SplineSet
477.0625 309.200195312 m 1
 379.481445312 211.619140625 l 1
 379.146330278 211.956776849 l 1
 366.436523438 199.247070312 l 1
 236.81640625 329.840820312 l 1
 114 207.024414062 l 1
 108.342773438 212.681640625 l 1
 106.928710938 211.267578125 l 1
 10.7626953125 307.43359375 l 1
 12.1767578125 308.848632812 l 1
 -6.2080078125 327.233398438 l 1
 117.05859375 450.5 l 1
 -9.744140625 578.255859375 l 1
 114 702 l 1
 240.802734375 574.244140625 l 1
 355.830078125 689.271484375 l 1
 374.55078125 670.55078125 l 1
 375.23828125 671.23828125 l 1
 471.405273438 575.072265625 l 1
 470.717285156 574.384277344 l 1
 476.038085938 569.063476562 l 1
 360.559570312 453.584960938 l 1
 490.180664062 322.990234375 l 1
 476.727766151 309.537442631 l 1
 477.0625 309.200195312 l 1
EndSplineSet
Validated: 1
EndChar

StartChar: divide
Encoding: 247 247 123
Width: 612
Flags: W
HStem: 122.25 173.75<204.982 323.018> 362 170<-2 510> 592.25 173.75<186.982 305.018>
VStem: 156 180<619.669 735.018> 174 180<149.669 265.018>
LayerCount: 2
Fore
SplineSet
-2 532 m 1xe0
 510 532 l 1
 510 515 l 1
 512 515 l 1
 512 379 l 1
 510 379 l 1
 510 362 l 1
 -2 362 l 1
 -2 532 l 1xe0
174 206 m 0xe8
 174 256 214 296 264 296 c 0
 314 296 354 256 354 206 c 0
 354 156 314 122.25 264 122.25 c 0
 214 122.25 174 156 174 206 c 0xe8
156 676 m 0xf0
 156 726 196 766 246 766 c 0
 296 766 336 726 336 676 c 0
 336 626 296 592.25 246 592.25 c 0
 196 592.25 156 626 156 676 c 0xf0
EndSplineSet
Validated: 1
EndChar

StartChar: brokenbar
Encoding: 166 166 124
Width: 247
Flags: W
HStem: 780 20G<0 173>
VStem: 0 173<-132 290 440 800>
LayerCount: 2
Fore
SplineSet
173 290 m 1
 173 -132 l 1
 0 -132 l 1
 0 290 l 1
 173 290 l 1
0 440 m 17
 0 800 l 1
 173 800 l 1
 173 440 l 1
 0 440 l 17
173 290 m 1025
0 290 m 1025
EndSplineSet
Validated: 1
EndChar

StartChar: section
Encoding: 167 167 125
Width: 875
Flags: W
LayerCount: 2
Fore
SplineSet
200.604492188 555.772460938 m 1
 367.58203125 501.659179688 592.252929688 510.659179688 598.727539062 410.330078125 c 0
 597.424804688 394.529296875 588.772460938 381.59375 574.465820312 371.216796875 c 1
 407.48828125 425.330078125 182.81640625 416.330078125 176.342773438 516.659179688 c 0
 177.645507812 532.458984375 186.296875 545.396484375 200.604492188 555.772460938 c 1
712.334960938 289.276367188 m 1
 758.860351562 336.241210938 774.73046875 394.390625 774.998046875 448.62109375 c 0
 776.278320312 708.486328125 204.815429688 615.41796875 190.716796875 743.935546875 c 1
 204.19140625 929.015625 661.625976562 799.3828125 743.890625 765.3203125 c 1
 745.186523438 908.741210938 l 1
 651.68359375 950.569335938 523.552734375 992.989257812 383.571289062 992.989257812 c 1
 177.561523438 985.029296875 28.271484375 896.44921875 22.1181640625 759.66015625 c 1
 21.9560546875 759.688476562 l 1
 21.306640625 708.193359375 36.658203125 668.634765625 62.734375 637.712890625 c 1
 16.2099609375 590.747070312 0.33984375 532.598632812 0.072265625 478.368164062 c 0
 -1.2080078125 218.502929688 570.254882812 311.571289062 584.353515625 183.053710938 c 1
 570.87890625 -2.0263671875 113.444335938 127.606445312 31.1796875 161.668945312 c 1
 29.8837890625 18.248046875 l 1
 123.38671875 -23.580078125 251.517578125 -66 391.499023438 -66 c 1
 597.508789062 -58.0400390625 746.798828125 30.5400390625 752.952148438 167.329101562 c 1
 753.114257812 167.30078125 l 1
 753.762695312 218.795898438 738.411132812 258.354492188 712.334960938 289.276367188 c 1
EndSplineSet
Validated: 41
EndChar

StartChar: degree
Encoding: 176 176 126
Width: 376
Flags: W
HStem: 506 105<109.95 169.725> 675 107<109.95 169.725>
VStem: 0 108<612.775 672.55> 172 104<612.775 672.55>
LayerCount: 2
Fore
SplineSet
108 643 m 4
 108 625 122 611 140 611 c 4
 158 611 172 625 172 643 c 4
 172 661 158 675 140 675 c 4
 122 675 108 661 108 643 c 4
0 644 m 4
 0 720 62 782 138 782 c 4
 214 782 276 720 276 644 c 4
 276 568 214 506 138 506 c 4
 62 506 0 568 0 644 c 4
EndSplineSet
Validated: 1
EndChar

StartChar: plusminus
Encoding: 177 177 127
Width: 612
Flags: W
HStem: 1 136<-2 510> 396 136<0 182.771 321.281 512>
VStem: 182 138<190 396 532 724>
LayerCount: 2
Fore
SplineSet
-2 137 m 5
 510 137 l 5
 510 1 l 5
 -2 1 l 5
 -2 137 l 5
184 724 m 5
 322 724 l 5
 321.28125 532 l 5
 512 532 l 5
 512 396 l 5
 320.771484375 396 l 5
 320 190 l 5
 182 190 l 5
 182.771484375 396 l 5
 0 396 l 5
 0 532 l 5
 183.28125 532 l 5
 184 724 l 5
EndSplineSet
Validated: 1
EndChar

StartChar: cedilla
Encoding: 184 184 128
Width: 650
Flags: W
LayerCount: 2
Fore
SplineSet
265 -162 m 5
 415.722641621 -213.083643278 464.194409274 -44.860982145 350 -29 c 5
 352.616210938 0.8544921875 l 5
 265 0.005859375 l 5
 265 -91 l 5
 334 -68 312 -123 266 -101 c 5
 265 -162 l 5
EndSplineSet
Validated: 41
EndChar

StartChar: periodcentered
Encoding: 183 183 129
Width: 244
Flags: W
HStem: 210.5 139<21 123>
VStem: 0 144<229 328.5>
LayerCount: 2
Fore
SplineSet
0 277.5 m 0
 0 317.5 32 349.5 72 349.5 c 0
 112 349.5 144 317.5 144 277.5 c 0
 144 237.5 112 210.5 72 210.5 c 0
 32 210.5 0 237.5 0 277.5 c 0
EndSplineSet
Validated: 1
EndChar

StartChar: acute
Encoding: 180 180 130
Width: 368
Flags: W
HStem: 660 140
LayerCount: 2
Fore
SplineSet
268 800 m 25
 74 800 l 25
 0 660 l 25
 54 660 l 25
 268 800 l 25
EndSplineSet
Validated: 9
EndChar

StartChar: questiondown
Encoding: 191 191 131
Width: 609
Flags: W
HStem: 652 173.75<223.374 341.41>
VStem: -5.6084 175<181.485 314.808> 192.392 180<682.982 798.331>
LayerCount: 2
Fore
SplineSet
372.391601562 742 m 0
 372.391601562 692 332.391601562 652 282.391601562 652 c 0
 232.391601562 652 192.391601562 692 192.391601562 742 c 0
 192.391601562 792 232.391601562 825.75 282.391601562 825.75 c 0
 332.391601562 825.75 372.391601562 792 372.391601562 742 c 0
508 86 m 1
 508 272 l 1
 368.737304688 177.209960938 167.801757812 78.896484375 169.391601562 254 c 1
 171.391601562 355 357.391601562 445 355 606 c 1
 191 606 l 1
 177.391601562 447 10.3916015625 445 -5.6083984375 239 c 1
 6.3916015625 -93 366.547851562 -12.767578125 508 86 c 1
EndSplineSet
Validated: 41
EndChar

StartChar: Thorn
Encoding: 222 222 132
Width: 691
Flags: W
HStem: 8.88178e-16 171.245<240.678 389.768> 443 177.502<251.936 383.141>
VStem: -0.128395 176.698<232.584 369.396> 445.164 145.836<236.07 375.129>
LayerCount: 2
Fore
SplineSet
804 292 m 1050
176.569335938 302.532226562 m 0
 176.569335938 366.256835938 239.40234375 443.768554688 330 443 c 0
 393.721679688 442.4609375 445.1640625 362.41796875 445.1640625 298.694335938 c 0
 445.1640625 234.969726562 393.717773438 172.161132812 330 171.245117188 c 0
 223.280273438 169.709960938 176.569335938 238.80859375 176.569335938 302.532226562 c 0
329.659179688 8.881784197e-16 m 0
 460.801637457 8.881784197e-16 591.000427505 58.5073987516 591.000427505 286.443258676 c 0
 591.000427505 293.147969115 590.887774783 299.999275211 590.659179688 307 c 0
 587.03125 418.102539062 520.659179688 608 343.659179688 620 c 0
 338.662852036 620.338747039 333.743983648 620.50315485 328.905115235 620.501682061 c 0
 256.244729314 620.524377285 191.944285769 584.459408428 159.659179688 539.431681521 c 1
 159.659179688 854 l 1
 142.659179688 854 l 1
 141 854 l 1
 -0.3408203125 854 l 1
 -2 854 l 1
 -0.128395051406 197.066663043 l 1
 0 -200 l 1
 1 -200 l 1
 146 -200 l 1
 164 -200 l 1
 161.795651806 75.8420484452 l 1
 194.971249917 29.8815173668 242.585965195 -6.54858112181e-15 329.659179688 8.881784197e-16 c 0
EndSplineSet
Validated: 41
EndChar

StartChar: Eth
Encoding: 208 208 133
Width: 736
Flags: W
HStem: 0 161.896<171.524 360.848> 319.5 157<-107 -0.475586 170.848 331> 627.588 172.412<169.524 364.347>
VStem: -0.475586 170.65<161.896 319.5 476.5 628.061>
LayerCount: 2
Fore
SplineSet
171.524414062 161.896484375 m 1
 287.138671875 161.423828125 l 2
 533.51953125 160.711914062 525.524414062 626.893554688 285.138671875 627.587890625 c 2
 169.524414062 628.060546875 l 1
 170.174659583 476.5 l 1
 331 476.5 l 1
 331 319.5 l 1
 170.84824218 319.5 l 1
 171.524414062 161.896484375 l 1
-0.4755859375 319.5 m 1
 -107 319.5 l 1
 -107 476.5 l 1
 -0.4755859375 476.5 l 1
 -0.4755859375 801 l 1
 12.296125098 801.068092496 25.2197920185 801.097704753 38.2585644554 801.098075428 c 0
 120.861075293 801.104983803 208.103502045 799.933222204 290.609880884 799.933345465 c 0
 301.335297693 799.933345465 311.980345145 799.954448676 322.524414062 800 c 0
 323.18050021 800 323.835520119 800.003663518 324.489474377 800.003663518 c 0
 785.853607923 800.278777667 717.578052554 -4.39469127755e-09 325 0 c 2
 324.524414062 0 l 1
 2.15105711021e-15 0 l 1
 -0.4755859375 0 l 1
 -0.4755859375 319.5 l 1
EndSplineSet
Validated: 33
EndChar

StartChar: Ntilde
Encoding: 209 209 134
Width: 787
Flags: W
LayerCount: 2
Fore
SplineSet
159 987.700195312 m 1
 211.724609375 1035.24511719 276.677734375 1037.18359375 355.419921875 987.700195312 c 0
 425.094726562 947.333007812 490.26953125 938.141601562 546.959960938 987.700195312 c 1
 546.959960938 886.700195312 l 1
 489.91796875 830.311523438 425.190429688 848.586914062 358.469726562 886.700195312 c 1
 294.608398438 927.98046875 229.31640625 951.065429688 159 888 c 1
 159 987.700195312 l 1
550 800 m 1
 523 800 l 1
 519 269 l 1
 162 800 l 1
 143 800 l 1
 0 800 l 1
 0 0 l 1
 145 0 l 1
 171 0 l 1
 168 518 l 1
 523 0 l 1
 550 0 l 1
 693 0 l 1
 691 800 l 1
 550 800 l 1
EndSplineSet
Validated: 41
EndChar

StartChar: Agrave
Encoding: 192 192 135
Width: 851
Flags: W
HStem: 0 21G<0 182.03 575.913 766> 114 188<296.217 486.082> 780 20G<312 504.7>
LayerCount: 2
Fore
SplineSet
486.08203125 301 m 1
 406 613 l 1
 296.216796875 302 l 1
 486.08203125 301 l 1
266 1007 m 1
 460 1007 l 1
 534 867 l 1
 480 867 l 1
 266 1007 l 1
164 0 m 1
 0 0 l 1
 320 800 l 1
 498 800 l 1
 766 0 l 1
 601 0 l 1
 583 0 l 1
 542.605638587 114 l 1
 224.473123301 114 l 1
 173 0 l 1
 164 0 l 1
EndSplineSet
Validated: 1
EndChar

StartChar: Aacute
Encoding: 193 193 136
Width: 851
Flags: W
HStem: 0 21G<0 182.03 575.913 766> 138 164<296.217 486.082> 780 20G<312 504.7>
LayerCount: 2
Fore
SplineSet
0 0 m 5
 320 800 l 5
 498 800 l 5
 766 0 l 5
 583 0 l 5
 534.1015625 138 l 5
 235.309570312 138 l 5
 173 0 l 5
 0 0 l 5
486.08203125 301 m 5
 406 613 l 5
 296.216796875 302 l 5
 486.08203125 301 l 5
545 1009 m 25
 351 1009 l 25
 277 869 l 25
 331 869 l 25
 545 1009 l 25
EndSplineSet
Validated: 9
EndChar

StartChar: Atilde
Encoding: 195 195 137
Width: 851
Flags: W
HStem: 0 21G<0 182.03 575.913 766> 138 164<296.217 486.082> 780 20G<312 504.7>
LayerCount: 2
Fore
SplineSet
0 0 m 5
 320 800 l 5
 498 800 l 5
 766 0 l 5
 583 0 l 5
 534.1015625 138 l 5
 235.309570312 138 l 5
 173 0 l 5
 0 0 l 5
486.08203125 301 m 5
 406 613 l 5
 296.216796875 302 l 5
 486.08203125 301 l 5
209.040039062 1002 m 17
 261.764648438 1049.54492188 326.717773438 1051.48339844 405.459960938 1002 c 1
 475.134765625 961.6328125 540.309570312 952.44140625 597 1002 c 9
 597 901 l 17
 539.958007812 844.611328125 475.23046875 862.88671875 408.509765625 901 c 1
 344.6484375 942.280273438 279.356445312 965.365234375 209.040039062 902.299804688 c 9
 209.040039062 1002 l 17
EndSplineSet
Validated: 33
EndChar

StartChar: Acircumflex
Encoding: 194 194 138
Width: 851
Flags: W
HStem: 0 21G<0 182.03 575.913 766> 138 164<296.217 486.082> 780 20G<312 504.7>
LayerCount: 2
Fore
SplineSet
0 0 m 5
 320 800 l 5
 498 800 l 5
 766 0 l 5
 583 0 l 5
 534.1015625 138 l 5
 235.309570312 138 l 5
 173 0 l 5
 0 0 l 5
486.08203125 301 m 5
 406 613 l 5
 296.216796875 302 l 5
 486.08203125 301 l 5
169 924 m 1
 169 846 l 1
 393 944 l 1
 626 844 l 1
 628 921 l 1
 443 1026 l 1
 337 1026 l 1
 169 924 l 1
EndSplineSet
Validated: 9
EndChar

StartChar: Adieresis
Encoding: 196 196 139
Width: 851
Flags: W
HStem: 0 21G<0 182.03 575.913 766> 138 164<296.217 486.082> 780 20G<312 504.7> 910 124<251.2 344.8 485.2 578.8>
VStem: 236 124<925.2 1018.8> 470 124<925.2 1018.8>
LayerCount: 2
Fore
SplineSet
0 0 m 5
 320 800 l 5
 498 800 l 5
 766 0 l 5
 583 0 l 5
 534.1015625 138 l 5
 235.309570312 138 l 5
 173 0 l 5
 0 0 l 5
486.08203125 301 m 5
 406 613 l 5
 296.216796875 302 l 5
 486.08203125 301 l 5
470 972 m 0
 470 1006 498 1034 532 1034 c 0
 566 1034 594 1006 594 972 c 0
 594 938 566 910 532 910 c 0
 498 910 470 938 470 972 c 0
236 972 m 0
 236 1006 264 1034 298 1034 c 0
 332 1034 360 1006 360 972 c 0
 360 938 332 910 298 910 c 0
 264 910 236 938 236 972 c 0
EndSplineSet
Validated: 1
EndChar

StartChar: Aring
Encoding: 197 197 140
Width: 851
Flags: W
HStem: 0 21G<0 182.03 575.913 766> 138 164<296.217 486.082> 780 20G<312 504.7> 871.502 47.084<381.811 454.252> 1000.65 52.3457<381.811 454.252>
VStem: 326.251 50.7676<924.21 995.627> 459.086 48.6631<924.21 995.627>
LayerCount: 2
Fore
SplineSet
0 0 m 5
 320 800 l 5
 498 800 l 5
 766 0 l 5
 583 0 l 5
 534.1015625 138 l 5
 235.309570312 138 l 5
 173 0 l 5
 0 0 l 5
486.08203125 301 m 5
 406 613 l 5
 296.216796875 302 l 5
 486.08203125 301 l 5
377.018554688 959.620117188 m 0
 377.018554688 936.5390625 394.969726562 918.5859375 418.052734375 918.5859375 c 0
 441.133789062 918.5859375 459.0859375 936.5390625 459.0859375 959.620117188 c 0
 459.0859375 982.701171875 441.133789062 1000.65429688 418.052734375 1000.65429688 c 0
 394.969726562 1000.65429688 377.018554688 982.701171875 377.018554688 959.620117188 c 0
326.250976562 962.250976562 m 0
 326.250976562 1012.22753906 367.022460938 1053 417 1053 c 0
 466.978515625 1053 507.749023438 1012.22753906 507.749023438 962.250976562 c 0
 507.749023438 912.272460938 466.978515625 871.501953125 417 871.501953125 c 0
 367.022460938 871.501953125 326.250976562 912.272460938 326.250976562 962.250976562 c 0
EndSplineSet
Validated: 1
EndChar

StartChar: AE
Encoding: 198 198 141
Width: 1529
Flags: W
HStem: 0 153.998<795 1197> 141 159<399.135 584.102> 336 177<795 1197> 629.164 171.836<795 1196>
LayerCount: 2
Fore
SplineSet
1197 153.4453125 m 1029x30
1197 0 m 1029xb0
1197 513 m 1029
164 0 m 1
 0 0 l 1
 588 800 l 1
 592.259675406 800 l 1
 593 801 l 1
 629 801 l 1
 766 801 l 5
 795 801 l 5
 1196 801 l 5
 1197 655.611328125 l 5
 1196.94824219 655.611328125 1196.89550781 655.611328125 1196.84375 655.611328125 c 5
 1197 628.611328125 l 5
 795 629.1640625 l 5
 795 513 l 5
 1197 513 l 5
 1197 500 l 5
 1197 361.447265625 l 5
 1197 335.447265625 l 5
 795 336 l 5
 795 153.998046875 l 5
 1197 153.4453125 l 5
 1197 137.4453125 l 5
 1197 0 l 5
 795 0 l 5
 794 0 l 5
 766 0 l 5
 765 0 l 5
 761 0 l 5
 629 0 l 1
 627 0 l 1
 583 0 l 1xb0
 584.1015625 141 l 1
 285.309570312 141 l 1x70
 173 0 l 1
 164 0 l 1
477.069152052 422.552586201 m 1
 399.134765625 300 l 1x70
 589 299 l 1
 594.642816275 589.605038143 l 1
 477.069152052 422.552586201 l 1
EndSplineSet
Validated: 1
EndChar

StartChar: Ccedilla
Encoding: 199 199 142
Width: 730
Flags: W
VStem: 0 188.1<283.286 505.108>
LayerCount: 2
Fore
SplineSet
639 568.000976562 m 1025
639 767.393554688 m 1025
639 767.393554688 m 1025
639 553.000976562 m 1025
639 553 m 1
 582 594 453 628 359.059570312 613.66015625 c 0
 244.387695312 596.155273438 188.099609375 519 188.099609375 390.240234375 c 0
 188.099609375 261.48046875 254 192 386.059570312 184.080078125 c 0
 549.218270955 174.295068532 607.00390625 223.0625 641 249.380859375 c 1
 641 231.380859375 l 1
 641 54 l 1
 607.330369647 41.241057634 534.615145469 6.4374592613 411.456030658 0.781502166364 c 1
 409.140847495 -25.6378574753 l 1
 471.660003182 -39.0144975848 485.961831606 -85.3356024922 465.005140001 -120.676649987 c 0
 447.536237429 -157.438851189 398.137854387 -185.372441166 324 -160.245117188 c 1
 324.085545479 -155.026842981 l 2
 324.057033607 -155.017902729 324.028518447 -155.00895507 324 -155 c 2
 324.262255859 -144.247509766 l 1
 325 -99.2451171875 l 1
 371 -121.245117188 393 -66.2451171875 324 -89.2451171875 c 1
 324 -64 l 1
 324 1.7607421875 l 1
 324 1.76110649551 l 1
 279.308187123 7.21908993288 236.531930014 22.5483136132 197.552442355 45.6689213008 c 0
 76.8104247285 112.843943712 1.40255359323e-06 247.21299279 0 402 c 0
 0 624 182.260742188 789.032226562 384 801 c 0
 397.209958716 801.783641619 410.198125842 802.142425425 422.900092066 802.142425425 c 0
 523.660404311 802.142425425 606.410949323 779.565232963 639 767.393554688 c 1
 639 568 l 1
 639 553 l 1
EndSplineSet
Validated: 33
EndChar

StartChar: Egrave
Encoding: 200 200 143
Width: 665
Flags: W
LayerCount: 2
Fore
SplineSet
573 137.4453125 m 1025
573 0 m 1025
573 500 m 1025
573 153.4453125 m 1025
573 0 m 1025
573 513 m 1025
143 1007 m 1
 337 1007 l 1
 411 867 l 1
 357 867 l 1
 143 1007 l 1
573 153.4453125 m 1
 171 153.998046875 l 1
 171 336 l 1
 573 335.447265625 l 1
 573 361.447265625 l 1
 573 500 l 1
 573 513 l 1
 171 513 l 1
 171 629.1640625 l 1
 573 628.611328125 l 1
 572.843376014 655.611528987 l 1
 572.89558401 655.611528987 572.947792005 655.611328125 573 655.611328125 c 1
 572 801 l 1
 171 801 l 1
 142 801 l 1
 0 801 l 1
 0 0 l 1
 141 0 l 1
 142 0 l 1
 170 0 l 1
 171 0 l 1
 573 0 l 1
 573 137.4453125 l 1
 573 153.4453125 l 1
EndSplineSet
Validated: 9
EndChar

StartChar: Eacute
Encoding: 201 201 144
Width: 665
Flags: W
LayerCount: 2
Fore
SplineSet
573 137.4453125 m 1025
573 0 m 1025
573 500 m 1025
573 153.4453125 m 1025
573 0 m 1025
573 513 m 1025
459 1002 m 1
 265 1002 l 1
 191 862 l 1
 245 862 l 1
 459 1002 l 1
573 153.4453125 m 1
 171 153.998046875 l 1
 171 336 l 1
 573 335.447265625 l 1
 573 361.447265625 l 1
 573 500 l 1
 573 513 l 1
 171 513 l 1
 171 629.1640625 l 1
 573 628.611328125 l 1
 572.843376014 655.611528987 l 1
 572.89558401 655.611528987 572.947792005 655.611328125 573 655.611328125 c 1
 572 801 l 1
 171 801 l 1
 142 801 l 1
 0 801 l 1
 0 0 l 1
 141 0 l 1
 142 0 l 1
 170 0 l 1
 171 0 l 1
 573 0 l 1
 573 137.4453125 l 1
 573 153.4453125 l 1
EndSplineSet
Validated: 9
EndChar

StartChar: Edieresis
Encoding: 203 203 145
Width: 665
Flags: W
HStem: 893 124<139.2 232.8 373.2 466.8>
VStem: 124 124<908.2 1001.8> 358 124<908.2 1001.8>
LayerCount: 2
Fore
SplineSet
573 513 m 1025
573 0 m 1025
573 153.4453125 m 1025
573 137.4453125 m 1025
573 0 m 1025
573 500 m 1025
573 153.4453125 m 1
 171 153.998046875 l 1
 171 336 l 1
 573 335.447265625 l 1
 573 361.447265625 l 1
 573 500 l 1
 573 513 l 1
 171 513 l 1
 171 629.1640625 l 1
 573 628.611328125 l 1
 572.843376014 655.611528987 l 1
 572.89558401 655.611528987 572.947792005 655.611328125 573 655.611328125 c 1
 572 801 l 1
 171 801 l 1
 142 801 l 1
 0 801 l 1
 0 0 l 1
 141 0 l 1
 142 0 l 1
 170 0 l 1
 171 0 l 1
 573 0 l 1
 573 137.4453125 l 1
 573 153.4453125 l 1
124 955 m 0
 124 989 152 1017 186 1017 c 0
 220 1017 248 989 248 955 c 0
 248 921 220 893 186 893 c 0
 152 893 124 921 124 955 c 0
358 955 m 0
 358 989 386 1017 420 1017 c 0
 454 1017 482 989 482 955 c 0
 482 921 454 893 420 893 c 0
 386 893 358 921 358 955 c 0
EndSplineSet
Validated: 9
EndChar

StartChar: Igrave
Encoding: 204 204 146
Width: 409
Flags: W
LayerCount: 2
Fore
SplineSet
0 671 m 1
 0 653 l 1
 87 653 l 1
 87 154 l 1
 1 154 l 1
 1 136 l 1
 1 0 l 1
 96 0 l 1
 241 0 l 1
 323 0 l 1
 323 136 l 1
 323 154 l 1
 253.700195312 154 l 1
 252.28515625 653 l 1
 322 653 l 1
 322 671 l 1
 322 801 l 1
 0 801 l 1
 0 671 l 1
15 1029 m 1
 209 1029 l 1
 283 889 l 1
 229 889 l 1
 15 1029 l 1
EndSplineSet
Validated: 9
EndChar

StartChar: Iacute
Encoding: 205 205 147
Width: 409
Flags: W
LayerCount: 2
Fore
SplineSet
321 1022 m 1
 127 1022 l 1
 53 882 l 1
 107 882 l 1
 321 1022 l 1
0 671 m 1
 0 653 l 1
 87 653 l 1
 87 154 l 1
 1 154 l 1
 1 136 l 1
 1 0 l 1
 96 0 l 1
 241 0 l 1
 323 0 l 1
 323 136 l 1
 323 154 l 1
 253.700195312 154 l 1
 252.28515625 653 l 1
 322 653 l 1
 322 671 l 1
 322 801 l 1
 0 801 l 1
 0 671 l 1
EndSplineSet
Validated: 9
EndChar

StartChar: Icircumflex
Encoding: 206 206 148
Width: 409
Flags: W
LayerCount: 2
Fore
SplineSet
-69 957 m 1
 -69 879 l 1
 155 977 l 1
 388 877 l 1
 390 954 l 1
 205 1059 l 1
 99 1059 l 1
 -69 957 l 1
0 671 m 1
 0 653 l 1
 87 653 l 1
 87 154 l 1
 1 154 l 1
 1 136 l 1
 1 0 l 1
 96 0 l 1
 241 0 l 1
 323 0 l 1
 323 136 l 1
 323 154 l 1
 253.700195312 154 l 1
 252.28515625 653 l 1
 322 653 l 1
 322 671 l 1
 322 801 l 1
 0 801 l 1
 0 671 l 1
EndSplineSet
Validated: 9
EndChar

StartChar: Idieresis
Encoding: 207 207 149
Width: 409
Flags: W
HStem: 911 124<-10.7997 82.7997 223.2 316.8>
VStem: -26 124<926.2 1019.8> 208 124<926.2 1019.8>
LayerCount: 2
Fore
SplineSet
-26 973 m 0
 -26 1007 2 1035 36 1035 c 0
 70 1035 98 1007 98 973 c 0
 98 939 70 911 36 911 c 0
 2 911 -26 939 -26 973 c 0
208 973 m 0
 208 1007 236 1035 270 1035 c 0
 304 1035 332 1007 332 973 c 0
 332 939 304 911 270 911 c 0
 236 911 208 939 208 973 c 0
0 671 m 1
 0 653 l 1
 87 653 l 1
 87 154 l 1
 1 154 l 1
 1 136 l 1
 1 0 l 1
 96 0 l 1
 241 0 l 1
 323 0 l 1
 323 136 l 1
 323 154 l 1
 253.700195312 154 l 1
 252.28515625 653 l 1
 322 653 l 1
 322 671 l 1
 322 801 l 1
 0 801 l 1
 0 671 l 1
EndSplineSet
Validated: 9
EndChar

StartChar: Ograve
Encoding: 210 210 150
Width: 839
Flags: W
HStem: 0 175.707<287.019 428.153> 595.354 205.646<285.078 430.093>
VStem: 0 181.244<290.889 482.945> 533.977 190.023<290.889 482.945>
LayerCount: 2
Fore
SplineSet
181.244140625 386.681640625 m 0
 181.244140625 278.5234375 260.169921875 175.70703125 357.610351562 175.70703125 c 0
 455.049804688 175.70703125 533.9765625 278.5234375 533.9765625 386.681640625 c 0
 533.9765625 494.83984375 455.049804688 595.354492188 357.610351562 595.354492188 c 0
 260.169921875 595.354492188 181.244140625 494.83984375 181.244140625 386.681640625 c 0
230 1013 m 1
 424 1013 l 1
 498 873 l 1
 444 873 l 1
 230 1013 l 1
362 0 m 0
 162 0 0 180 0 402 c 0
 0 624 162 801 362 801 c 0
 562 801 724 624 724 402 c 0
 724 180 562 0 362 0 c 0
EndSplineSet
Validated: 1
EndChar

StartChar: Oacute
Encoding: 211 211 151
Width: 839
Flags: W
HStem: 0 175.707<287.019 428.153> 595.354 205.646<285.078 430.093>
VStem: 0 181.244<290.889 482.945> 533.977 190.023<290.889 482.945>
LayerCount: 2
Fore
SplineSet
181.244140625 386.681640625 m 0
 181.244140625 278.5234375 260.169921875 175.70703125 357.610351562 175.70703125 c 0
 455.049804688 175.70703125 533.9765625 278.5234375 533.9765625 386.681640625 c 0
 533.9765625 494.83984375 455.049804688 595.354492188 357.610351562 595.354492188 c 0
 260.169921875 595.354492188 181.244140625 494.83984375 181.244140625 386.681640625 c 0
545 1009 m 1
 351 1009 l 1
 277 869 l 1
 331 869 l 1
 545 1009 l 1
362 0 m 0
 162 0 0 180 0 402 c 0
 0 624 162 801 362 801 c 0
 562 801 724 624 724 402 c 0
 724 180 562 0 362 0 c 0
EndSplineSet
Validated: 9
EndChar

StartChar: Otilde
Encoding: 213 213 152
Width: 839
Flags: W
HStem: 0 175.707<287.019 428.153> 595.354 205.646<285.078 430.093>
VStem: 0 181.244<290.889 482.945> 533.977 190.023<290.889 482.945>
LayerCount: 2
Fore
SplineSet
181.244140625 386.681640625 m 0
 181.244140625 278.5234375 260.169921875 175.70703125 357.610351562 175.70703125 c 0
 455.049804688 175.70703125 533.9765625 278.5234375 533.9765625 386.681640625 c 0
 533.9765625 494.83984375 455.049804688 595.354492188 357.610351562 595.354492188 c 0
 260.169921875 595.354492188 181.244140625 494.83984375 181.244140625 386.681640625 c 0
177 1002.70019531 m 1
 229.724609375 1050.24511719 294.677734375 1052.18359375 373.419921875 1002.70019531 c 0
 443.094726562 962.333007812 508.26953125 953.141601562 564.959960938 1002.70019531 c 1
 564.959960938 901.700195312 l 1
 507.91796875 845.311523438 443.190429688 863.586914062 376.469726562 901.700195312 c 1
 312.608398438 942.98046875 247.31640625 966.065429688 177 903 c 1
 177 1002.70019531 l 1
362 0 m 0
 162 0 0 180 0 402 c 0
 0 624 162 801 362 801 c 0
 562 801 724 624 724 402 c 0
 724 180 562 0 362 0 c 0
EndSplineSet
Validated: 33
EndChar

StartChar: Ocircumflex
Encoding: 212 212 153
Width: 839
Flags: W
HStem: 0 175.707<287.019 428.153> 595.354 205.646<285.078 430.093>
VStem: 0 181.244<290.889 482.945> 533.977 190.023<290.889 482.945>
LayerCount: 2
Fore
SplineSet
181.244140625 386.681640625 m 0
 181.244140625 278.5234375 260.169921875 175.70703125 357.610351562 175.70703125 c 0
 455.049804688 175.70703125 533.9765625 278.5234375 533.9765625 386.681640625 c 0
 533.9765625 494.83984375 455.049804688 595.354492188 357.610351562 595.354492188 c 0
 260.169921875 595.354492188 181.244140625 494.83984375 181.244140625 386.681640625 c 0
132 924 m 1
 132 846 l 1
 356 944 l 1
 589 844 l 1
 591 921 l 1
 406 1026 l 1
 300 1026 l 1
 132 924 l 1
362 0 m 0
 162 0 0 180 0 402 c 0
 0 624 162 801 362 801 c 0
 562 801 724 624 724 402 c 0
 724 180 562 0 362 0 c 0
EndSplineSet
Validated: 9
EndChar

StartChar: Odieresis
Encoding: 214 214 154
Width: 839
Flags: W
HStem: 0 175.707<287.019 428.153> 595.354 205.646<285.078 430.093> 897 124<208.2 301.8 442.2 535.8>
VStem: 0 181.244<290.889 482.945> 193 124<912.2 1005.8> 427 124<912.2 1005.8> 533.977 190.023<290.889 482.945>
LayerCount: 2
Fore
SplineSet
181.244140625 386.681640625 m 0xfa
 181.244140625 278.5234375 260.169921875 175.70703125 357.610351562 175.70703125 c 0
 455.049804688 175.70703125 533.9765625 278.5234375 533.9765625 386.681640625 c 0
 533.9765625 494.83984375 455.049804688 595.354492188 357.610351562 595.354492188 c 0
 260.169921875 595.354492188 181.244140625 494.83984375 181.244140625 386.681640625 c 0xfa
427 959 m 0xfc
 427 993 455 1021 489 1021 c 0
 523 1021 551 993 551 959 c 0
 551 925 523 897 489 897 c 0
 455 897 427 925 427 959 c 0xfc
193 959 m 0
 193 993 221 1021 255 1021 c 0
 289 1021 317 993 317 959 c 0
 317 925 289 897 255 897 c 0
 221 897 193 925 193 959 c 0
362 0 m 0
 162 0 0 180 0 402 c 0
 0 624 162 801 362 801 c 0
 562 801 724 624 724 402 c 0xfa
 724 180 562 0 362 0 c 0
EndSplineSet
Validated: 1
EndChar

StartChar: Oslash
Encoding: 216 155 155
Width: 839
Flags: W
HStem: 0 175.707<287.019 428.153> 595.354 205.646<285.078 430.093>
VStem: 0 181.244<290.889 482.945> 533.977 190.023<290.889 482.945>
LayerCount: 2
Fore
SplineSet
362 0 m 0
 162 0 0 180 0 402 c 0
 0 624 162 801 362 801 c 0
 562 801 724 624 724 402 c 0
 724 180 562 0 362 0 c 0
181.244140625 386.681640625 m 0
 181.244140625 278.5234375 260.169921875 175.70703125 357.610351562 175.70703125 c 0
 455.049804688 175.70703125 533.9765625 278.5234375 533.9765625 386.681640625 c 0
 533.9765625 494.83984375 455.049804688 595.354492188 357.610351562 595.354492188 c 0
 260.169921875 595.354492188 181.244140625 494.83984375 181.244140625 386.681640625 c 0
EndSplineSet
Validated: 1
EndChar

StartChar: Oslash
Encoding: 216 216 156
Width: 839
Flags: W
HStem: 0 139.08<340.475 437.89> 638.66 162.34<278.77 370.607>
VStem: 0 149.1<288.822 493.441> 569.02 154.98<288.822 493.441>
LayerCount: 2
Fore
SplineSet
472 930 m 1
 630 930 l 1
 238 -150 l 1
 81 -150 l 1
 472 930 l 1
149.099609375 390.240234375 m 0
 149.099609375 261.48046875 243.059570312 139.080078125 359.059570312 139.080078125 c 0
 475.059570312 139.080078125 569.01953125 261.48046875 569.01953125 390.240234375 c 0
 569.01953125 519 475.059570312 638.66015625 359.059570312 638.66015625 c 0
 243.059570312 638.66015625 149.099609375 519 149.099609375 390.240234375 c 0
0 402 m 0
 0 624 162 801 362 801 c 0
 562 801 724 624 724 402 c 0
 724 180 562 0 362 0 c 0
 162 0 0 180 0 402 c 0
EndSplineSet
Validated: 5
EndChar

StartChar: Ugrave
Encoding: 217 217 157
Width: 715
Flags: W
LayerCount: 2
Fore
SplineSet
134 1005 m 1
 328 1005 l 1
 402 865 l 1
 348 865 l 1
 134 1005 l 1
149 800 m 1
 0 800 l 1
 1 222 l 2
 1 -67 605 -89 603 214 c 2
 602.884510618 236.558925922 l 2
 602.955428497 239.019489611 602.994086272 241.499838477 603 244 c 2
 600 800 l 1
 453 800 l 1
 422 800 l 1
 428 291 l 2
 432.785588952 139.339977488 195.863597487 122.758727944 180 284 c 1
 179 800 l 1
 149 800 l 1
EndSplineSet
Validated: 41
EndChar

StartChar: Uacute
Encoding: 218 218 158
Width: 715
Flags: W
LayerCount: 2
Fore
SplineSet
460 1010 m 1
 266 1010 l 1
 192 870 l 1
 246 870 l 1
 460 1010 l 1
149 800 m 1
 0 800 l 1
 1 222 l 2
 1 -67 605 -89 603 214 c 2
 602.884510618 236.558925922 l 2
 602.955428497 239.019489611 602.994086272 241.499838477 603 244 c 2
 600 800 l 1
 453 800 l 1
 422 800 l 1
 428 291 l 2
 432.785588952 139.339977488 195.863597487 122.758727944 180 284 c 1
 179 800 l 1
 149 800 l 1
EndSplineSet
Validated: 41
EndChar

StartChar: Ucircumflex
Encoding: 219 219 159
Width: 715
Flags: W
LayerCount: 2
Fore
SplineSet
65 936 m 1
 65 858 l 1
 289 956 l 1
 522 856 l 1
 524 933 l 1
 339 1038 l 1
 233 1038 l 1
 65 936 l 1
149 800 m 1
 0 800 l 1
 1 222 l 6
 1 -67 605 -89 603 214 c 2
 602.884510618 236.558925922 l 2
 602.955428497 239.019489611 602.994086272 241.499838477 603 244 c 2
 600 800 l 1
 453 800 l 1
 422 800 l 1
 428 291 l 2
 432.785588952 139.339977488 195.863597487 122.758727944 180 284 c 5
 179 800 l 1
 149 800 l 1
EndSplineSet
Validated: 41
EndChar

StartChar: Udieresis
Encoding: 220 220 160
Width: 715
Flags: W
HStem: 910 124<131.2 224.8 365.2 458.8>
VStem: 116 124<925.2 1018.8> 350 124<925.2 1018.8>
LayerCount: 2
Fore
SplineSet
350 972 m 0
 350 1006 378 1034 412 1034 c 0
 446 1034 474 1006 474 972 c 0
 474 938 446 910 412 910 c 0
 378 910 350 938 350 972 c 0
116 972 m 0
 116 1006 144 1034 178 1034 c 0
 212 1034 240 1006 240 972 c 0
 240 938 212 910 178 910 c 0
 144 910 116 938 116 972 c 0
149 800 m 1
 0 800 l 1
 1 222 l 2
 1 -67 605 -89 603 214 c 2
 602.884510618 236.558925922 l 2
 602.955428497 239.019489611 602.994086272 241.499838477 603 244 c 2
 600 800 l 1
 453 800 l 1
 422 800 l 1
 428 291 l 2
 432.785588952 139.339977488 195.863597487 122.758727944 180 284 c 1
 179 800 l 1
 149 800 l 1
EndSplineSet
Validated: 41
EndChar

StartChar: Yacute
Encoding: 221 221 161
Width: 846
Flags: W
LayerCount: 2
Fore
SplineSet
545 1009 m 1
 351 1009 l 1
 277 869 l 1
 331 869 l 1
 545 1009 l 1
172 800 m 1
 0 800 l 1
 269 305.5 l 1
 295.161132812 305.5 l 1
 126 0 l 1
 147 0 l 1
 301 0 l 1
 312 0 l 1
 766 800 l 1
 601 800 l 1
 569 800 l 1
 396 482.5 l 1
 195 800 l 1
 172 800 l 1
EndSplineSet
Validated: 9
EndChar

StartChar: f_i
Encoding: 258 -1 162
Width: 815
Flags: HW
HStem: 0 21G<146.439 315.439 635 808> 444 164.53<0.439453 146.439 317.364 635> 658.005 167.945<657.451 771.711>
VStem: 146.439 169<0 444 608.741 669.312> 627.662 173.837<687.311 796.644> 635 173<0 444>
LayerCount: 2
Fore
SplineSet
635.469726562 735.583007812 m 0
 635.469726562 756.4765625 652.994140625 774 675.235351562 774 c 0
 697.4765625 774 715 756.4765625 715 735.583007812 c 0
 715 714.689453125 697.4765625 697.165039062 675.235351562 697.165039062 c 0
 652.994140625 697.165039062 635.469726562 714.689453125 635.469726562 735.583007812 c 0
647.235351562 548 m 1
 245.204101562 548 l 1
 246 0 l 1
 190 0 l 1
 190 548 l 1
 0 548 l 1
 0 609 l 1
 190 608.741210938 l 1
 190 800 384 938 494 813 c 1
 494 750 l 1
 374 894 246 734 243.924804688 608.530273438 c 1
 655 608 l 1
 704.235351562 608 l 1
 704.235351562 0 l 1
 647.235351562 0 l 1
 647.235351562 548 l 1
EndSplineSet
LCarets2: 1 635
Ligature2: "'liga' Standard Ligatures in Latin lookup 0-1" f i
EndChar

StartChar: f_f
Encoding: 259 -1 163
Width: 1184
Flags: HW
HStem: 0 21G<146 315 698 867> 444 164.53<0 146 316.925 698 868.925 1087>
VStem: 146 169<0 444 608.741 669.312> 698 169<0 444 608.741 669.312>
LayerCount: 2
Fore
SplineSet
1084 608 m 1
 1084 548 l 1
 794.204101562 548 l 1
 795 0 l 1
 739 0 l 1
 739 548 l 1
 584 548 l 1
 549 548 l 1
 245.204101562 548 l 1
 246 0 l 1
 190 0 l 1
 190 548 l 1
 0 548 l 1
 0 609 l 1
 190 608.741210938 l 1
 190 800 384 938 494 813 c 1
 494 750 l 1
 374 894 246 734 243.924804688 608.530273438 c 1
 549 608.054574902 l 1
 549 609 l 1
 739 608.741210938 l 1
 739 800 933 938 1043 813 c 1
 1043 750 l 1
 923 894 795 734 792.924804688 608.530273438 c 1
 1084 608 l 1
EndSplineSet
LCarets2: 1 553
Ligature2: "'liga' Standard Ligatures in Latin lookup 0-1" f f
EndChar

StartChar: f_f_i
Encoding: 260 -1 164
Width: 1269
Flags: HW
HStem: 0 21G<146.674 315.674 702.674 871.674 1102.24 1275.24> 444 164.53<0.674805 146.674 317.599 702.674 873.599 1102.24> 658.005 167.945<1124.69 1238.95>
VStem: 146.674 169<0 444 608.741 669.312> 702.674 169<0 444 608.741 669.312> 1094.9 173.837<687.311 796.644> 1102.24 173<0 444>
LayerCount: 2
Fore
SplineSet
1089.46972656 735.583007812 m 0
 1089.46972656 756.4765625 1106.99414062 774 1129.23535156 774 c 0
 1151.4765625 774 1169 756.4765625 1169 735.583007812 c 0
 1169 714.689453125 1151.4765625 697.165039062 1129.23535156 697.165039062 c 0
 1106.99414062 697.165039062 1089.46972656 714.689453125 1089.46972656 735.583007812 c 0
1101.23535156 548.466796875 m 1
 753.204101562 548 l 1
 754 0 l 1
 698 0 l 1
 698 548 l 1
 535.235351562 548 l 1
 508 548 l 1
 245.439453125 548 l 1
 246.235351562 0 l 1
 190.235351562 0 l 1
 190.235351562 548 l 1
 0.2353515625 548 l 1
 0.2353515625 609 l 1
 190.235351562 608.741210938 l 1
 190.235351562 800 384.235351562 938 494.235351562 813 c 1
 494.235351562 750 l 1
 374.235351562 894 246.235351562 734 244.16015625 608.530273438 c 1
 396.459960938 607.504882812 545.973632812 609.275390625 698 608.741210938 c 5
 698 800 892 938 1002 813 c 1
 1002 750 l 1
 882 894 754 734 751.924804688 608.530273438 c 1
 1126.23535156 608.5 l 1
 1126.23535156 608 l 1
 1158.23535156 608 l 1
 1158.23535156 0 l 1
 1101.23535156 0 l 1
 1101.23535156 548.466796875 l 1
EndSplineSet
LCarets2: 2 556 1102
Ligature2: "'liga' Standard Ligatures in Latin lookup 0-1" f f i
EndChar

StartChar: f_t
Encoding: 261 -1 165
Width: 1248
Flags: HW
HStem: 0 21G<146 315> 444 164.53<0 146 316.925 734 899 1148> 781 20G<734 899>
VStem: 146 169<0 444 608.741 669.312> 734 165<166.023 444 608 801>
LayerCount: 2
Fore
SplineSet
791 801.5 m 1
 849 801.5 l 1
 849 608.5 l 1
 1148 608.5 l 1
 1148 548.5 l 1
 849 548.5 l 1
 849 150.5 l 1
 849 145.068359375 l 2
 849 72 956 0.5 1090 125.5 c 1
 1090 43.5 l 1
 988 -14.5 800 -33.5 791 155 c 1
 791 548.5 l 1
 636 548.5 l 1
 245.204101562 548 l 1
 246 0 l 1
 190 0 l 1
 190 548 l 1
 0 548 l 1
 0 609 l 1
 190 608.741210938 l 1
 190 800 384 938 494 813 c 1
 494 750 l 1
 374 894 246 734 243.924804688 608.530273438 c 1
 636 608.5 l 1
 791 608.5 l 1
 791 801.5 l 1
EndSplineSet
LCarets2: 1 602
Ligature2: "'liga' Standard Ligatures in Latin lookup 0-1" f t
EndChar

StartChar: t_i
Encoding: 262 -1 166
Width: 826
Flags: HW
HStem: 0 21G<646 819> 444 164<0.439453 132.439 297.439 646> 658.005 167.945<668.451 782.711> 781 20G<132.439 297.439>
VStem: 132.439 165<166.023 444 608 801> 638.662 173.837<687.311 796.644> 646 173<0 444>
LayerCount: 2
Fore
SplineSet
646.469726562 735.583007812 m 0
 646.469726562 756.4765625 663.994140625 774 686.235351562 774 c 0
 708.4765625 774 726 756.4765625 726 735.583007812 c 0
 726 714.689453125 708.4765625 697.165039062 686.235351562 697.165039062 c 0
 663.994140625 697.165039062 646.469726562 714.689453125 646.469726562 735.583007812 c 0
189 801 m 1
 247 801 l 1
 247 608 l 1
 658.235351562 608 l 1
 688 608 l 1
 715.235351562 608 l 1
 715.235351562 0 l 1
 658.235351562 0 l 1
 658.235351562 548 l 1
 247 548 l 1
 247 150 l 1
 247 144.568359375 l 2
 247 71.5 354 0 488 125 c 1
 488 43 l 1
 386 -15 198 -34 189 154.5 c 1
 189 548 l 1
 0 548 l 1
 0 608 l 1
 189 608 l 1
 189 801 l 1
EndSplineSet
LCarets2: 1 646
Ligature2: "'liga' Standard Ligatures in Latin lookup 0-1" t i
EndChar

StartChar: t_t
Encoding: 263 -1 167
Width: 1292
Flags: HW
HStem: 444 164<0 132 297 778 943 1192> 781 20G<132 297 778 943>
VStem: 132 165<166.023 444 608 801> 778 165<166.023 444 608 801>
LayerCount: 2
Fore
SplineSet
835 801 m 1
 893 801 l 1
 893 608 l 1
 1192 608 l 1
 1192 548 l 1
 893 548 l 1
 893 150 l 1
 893 144.568359375 l 2
 893 71.5 1000 0 1134 125 c 1
 1134 43 l 1
 1032 -15 844 -34 835 154.5 c 1
 835 548 l 1
 686 548 l 1
 646 548 l 1
 247 548 l 1
 247 150 l 1
 247 144.568359375 l 2
 247 71.5 354 0 488 125 c 1
 488 43 l 1
 386 -15 198 -34 189 154.5 c 1
 189 548 l 1
 0 548 l 1
 0 608 l 1
 189 608 l 1
 189 801 l 1
 247 801 l 1
 247 608 l 1
 646 608 l 1
 686 608 l 1
 835 608 l 1
 835 801 l 1
EndSplineSet
LCarets2: 1 646
Ligature2: "'liga' Standard Ligatures in Latin lookup 0-1" t t
EndChar

StartChar: t_t_i
Encoding: 264 -1 168
Width: 1472
Flags: HW
HStem: 0 21G<1292 1465> 444 164<0.439453 132.439 297.439 778.439 943.439 1292> 658.005 167.945<1314.45 1428.71> 781 20G<132.439 297.439 778.439 943.439>
VStem: 132.439 165<166.023 444 608 801> 778.439 165<166.023 444 608 801> 1284.66 173.837<687.311 796.644> 1292 173<0 444>
LayerCount: 2
Fore
SplineSet
1292.46972656 735.583007812 m 0
 1292.46972656 756.4765625 1309.99414062 774 1332.23535156 774 c 0
 1354.4765625 774 1372 756.4765625 1372 735.583007812 c 0
 1372 714.689453125 1354.4765625 697.165039062 1332.23535156 697.165039062 c 0
 1309.99414062 697.165039062 1292.46972656 714.689453125 1292.46972656 735.583007812 c 0
835 801 m 1
 893 801 l 1
 893 608 l 1
 1304.23535156 608 l 1
 1340 608 l 1
 1361.23535156 608 l 1
 1361.23535156 0 l 1
 1304.23535156 0 l 1
 1304.23535156 548 l 1
 893 548 l 1
 893 150 l 1
 893 144.568359375 l 2
 893 71.5 1000 0 1134 125 c 1
 1134 43 l 1
 1032 -15 844 -34 835 154.5 c 1
 835 548 l 1
 720 548 l 1
 646 548 l 1
 247 548 l 1
 247 150 l 1
 247 144.568359375 l 2
 247 71.5 354 0 488 125 c 1
 488 43 l 1
 386 -15 198 -34 189 154.5 c 1
 189 548 l 1
 0 548 l 1
 0 608 l 1
 189 608 l 1
 189 801 l 1
 247 801 l 1
 247 608 l 1
 646 608 l 1
 720 608 l 1
 835 608 l 1
 835 801 l 1
EndSplineSet
LCarets2: 2 648 1293
Ligature2: "'liga' Standard Ligatures in Latin lookup 0-1" t t i
EndChar

StartChar: t_f
Encoding: 265 -1 169
Width: 1281
Flags: H
HStem: 0 21G<792 961> 444 164<0 132 297 792 962.925 1181> 781 20G<132 297>
VStem: 132 165<166.023 444 608 801> 792 169<0 444 608.741 669.312>
LayerCount: 2
Fore
SplineSet
1181 608 m 1
 1181 548 l 1
 891.204101562 548 l 1
 892 0 l 1
 836 0 l 1
 836 548 l 1
 639.666666667 548 443.333333333 548 247 548 c 1
 247 150 l 1
 247 144.568359375 l 2
 247 71.5 354 0 488 125 c 1
 488 43 l 1
 386 -15 198 -34 189 154.5 c 1
 189 548 l 1
 0 548 l 1
 0 608 l 1
 189 608 l 1
 189 801 l 1
 247 801 l 1
 247 608 l 1
 444.32321252 607.361339318 639.882852072 608.901442457 836 608.741210938 c 1
 836 800 1030 938 1140 813 c 1
 1140 750 l 1
 1020 894 892 734 889.924804688 608.530273438 c 1
 1181 608 l 1
EndSplineSet
LCarets2: 1 650
Ligature2: "'liga' Standard Ligatures in Latin lookup 0-1" t f
EndChar

StartChar: zero
Encoding: 48 48 170
Width: 712
Flags: HW
HStem: -1 181.634<244.074 354.393> 595.418 207.582<244.074 354.393>
VStem: 0 170.411<278.856 500.632> 429.594 182.406<278.856 500.632>
LayerCount: 2
Fore
SplineSet
70.4111328125 388.025390625 m 0
 70.4111328125 205.497070759 173.201992085 57.5 300.001953125 57.5 c 0
 432.324323559 57.5 539.59375 205.497070759 539.59375 388.025390625 c 0
 539.59375 582.951741864 432.324323559 741 300.001953125 741 c 0
 173.201992085 741 70.4111328125 582.951741864 70.4111328125 388.025390625 c 0
0 401 m 0
 0 623 137 803 306 803 c 0
 475 803 612 623 612 401 c 0
 612 179 475 -1 306 -1 c 0
 137 -1 0 179 0 401 c 0
EndSplineSet
EndChar

StartChar: one
Encoding: 49 49 171
Width: 430
Flags: HW
LayerCount: 2
Fore
SplineSet
285 801 m 25
 0 608 l 25
 0 541.5 l 29
 272 718 l 29
 270 0 l 25
 343 0 l 25
 343 801 l 25
 285 801 l 25
EndSplineSet
EndChar

StartChar: two
Encoding: 50 50 172
Width: 744
Flags: HW
HStem: 0 165.5<230 644>
VStem: 445 195<548.801 640.614>
LayerCount: 2
Fore
SplineSet
0 652 m 1
 166 890 636 850 640 582 c 5
 632 437 104 245 90 65.5 c 1
 644 68 l 25
 644 0 l 25
 0 0 l 1
 0 312 541.325842697 476 545 582 c 1
 545 784 148 756 0 575.5 c 1
 0 652 l 1
EndSplineSet
EndChar

StartChar: three
Encoding: 51 51 173
Width: 736
Flags: HW
HStem: 329 149.5<167.231 380.251>
VStem: 446.231 189<182.06 281.646 523.404 617.105>
LayerCount: 2
Fore
SplineSet
167.231445312 428.5 m 1
 528.94677378 416.614035088 541.231445312 516 541.231445312 564 c 0
 541.231445312 799 192 797 0.2314453125 585.5 c 1
 0.2314453125 652 l 1
 130.231445312 856 626.681640625 855.931640625 635.231445312 608 c 0
 635.504882812 565.31640625 649.21484375 465.62109375 548.387695312 400.75 c 1
 649.21484375 335.87890625 635.504882812 236.18359375 635.231445312 193.5 c 0
 626.681640625 -54.431640625 130.231445312 -54.5 0.2314453125 149.5 c 1
 0.2314453125 214 l 1
 204 0 546.231445312 0 546.231445312 237.5 c 0
 546.231445312 280 527.213524166 390.598360656 167.231445312 379 c 1
 167.231445312 388 l 1
 167.231445312 419.5 l 1
 167.231445312 428.5 l 1
EndSplineSet
EndChar

StartChar: four
Encoding: 52 52 174
Width: 798
Flags: HW
LayerCount: 2
Fore
SplineSet
470 801 m 1
 0 302.5 l 1
 0 297 l 1
 0 251 l 1
 465.877929688 251 l 1
 465 0 l 1
 511 0 l 1
 511 251 l 1
 698 251 l 1
 698 297 l 1
 511 297 l 1
 511 801 l 1
 470 801 l 1
63 297 m 1
 467 723 l 1
 466.28515625 297 l 1
 63 297 l 1
EndSplineSet
EndChar

StartChar: five
Encoding: 53 53 175
Width: 808
Flags: HW
VStem: 499.984 208<228.089 340.862>
LayerCount: 2
Fore
SplineSet
631.984375 800 m 1
 -0.015625 800 l 1
 -0.015625 407.5 l 1
 446.5234375 474 609.984375 444 609.984375 303 c 5
 609.984375 15 417.242351323 15 0 108 c 1
 0 108 0 52 -0.015625 52 c 1
 177.984375 0 678.984375 -96 707.984375 296 c 1
 711.46450652 636 213.805699191 520 63 488 c 1
 63 741 l 1
 631.984375 741 l 1
 631.984375 800 l 1
EndSplineSet
EndChar

StartChar: six
Encoding: 54 54 176
Width: 766
Flags: HW
HStem: -0.40918 161.994<223.359 442.477> 642 160.46<304.533 416>
VStem: 482.321 183.679<196.936 328.494>
LayerCount: 2
Fore
SplineSet
582.321289062 264.455078125 m 4
 582.321289062 376.294947267 526.112449715 417.586677783 353.440429688 433.6796875 c 4
 295.158337841 439.111570849 96.9877217973 440.577355588 101.01171875 260.188476562 c 4
 104.087973926 122.285235259 196.648243787 57.5 338.860351562 57.5 c 4
 528.555838604 57.5 582.321289062 132.526348489 582.321289062 264.455078125 c 4
95.0498046875 388.701171875 m 5
 157.165481769 483.149860488 275.059446566 509.401400705 402 504 c 4
 587.044921875 500.223632812 666 403.333007812 666 256.135742188 c 4
 666 109.43359375 549.515625 -0.4091796875 342.9140625 -0.4091796875 c 4
 130.780273438 -0.4091796875 -11.7580683333 87.429553182 3 341 c 4
 14 530 88 770 416 802.459960938 c 5
 416 741 l 5
 132.075362002 746.467681799 98.8229269217 467.615910032 95.0498046875 388.701171875 c 5
EndSplineSet
EndChar

StartChar: seven
Encoding: 55 55 177
Width: 779
Flags: HW
LayerCount: 2
Fore
SplineSet
0 800 m 1
 0 741 l 1
 560 741 l 5
 113 0 l 1
 195 0 l 1
 679 800 l 1
 0 800 l 1
EndSplineSet
EndChar

StartChar: eight
Encoding: 56 56 178
Width: 756
Flags: HW
HStem: -2.98047 153.739<252.333 411.957> 373.891 161.072<271.947 374.735> 644.86 162.14<278.199 369.996>
VStem: -1.12012 194.079<204.01 321.991> 102.399 160.676<544.475 630.469> 384.516 161.884<544.254 630.469> 472.818 183.182<204.01 322.024>
LayerCount: 2
Fore
SplineSet
102.399414062 585 m 0xe8
 102.399414062 708 201.399414062 807 324.399414062 807 c 0
 447.399414062 807 546.399414062 708 546.399414062 585 c 0xec
 546.399414062 535.895507812 531.895507812 500.01953125 506.642578125 474.635742188 c 1
 596.68359375 429.78125 656 351.327148438 656 258.979492188 c 0
 656 113.83984375 509.479492188 -2.98046875 327.439453125 -2.98046875 c 0
 145.399414062 -2.98046875 -1.1201171875 113.83984375 -1.1201171875 258.979492188 c 0xf2
 -1.1201171875 351.224609375 58.064453125 429.607421875 147.9375 474.486328125 c 1
 119.520507812 499.877929688 102.399414062 535.798828125 102.399414062 585 c 0xe8
82.958984375 262.323242188 m 4xf2
 82.958984375 150.090294342 193.72391197 60.7587890625 332.888671875 60.7587890625 c 0
 466.486949797 60.7587890625 572.818359375 150.090294342 572.818359375 262.323242188 c 0
 572.818359375 357.854039359 466.486949797 433.890625 332.888671875 433.890625 c 0
 193.72391197 433.890625 82.958984375 357.854039359 82.958984375 262.323242188 c 4xf2
333.961914062 494.962890625 m 0
 419.974740786 500.298585192 484.515625 529.119836128 484.515625 584.139648438 c 0
 484.515625 673.632269357 413.286830024 744.860351562 323.795898438 744.860351562 c 0
 239.87148492 744.860351562 173.075195312 673.632269357 173.075195312 584.139648438 c 0xec
 173.075195312 528.913914286 233.551245253 500.091020307 313.981445312 494.928710938 c 0
 317.470703125 495.047851562 320.982421875 495.108398438 324.513671875 495.108398438 c 0
 327.678710938 495.108398438 330.829101562 495.059570312 333.961914062 494.962890625 c 0
EndSplineSet
EndChar

StartChar: nine
Encoding: 57 57 179
Width: 766
Flags: HW
HStem: -1.86914 160.46<249.914 361.381> 639.006 161.994<223.437 442.555>
VStem: -0.0859375 183.679<472.097 603.654>
LayerCount: 2
Fore
SplineSet
86.6787109375 537.595703125 m 0
 86.6787109375 425.755833983 142.887550285 384.464103467 315.559570312 368.37109375 c 0
 373.841662159 362.939210401 572.012278203 361.473425662 567.98828125 541.862304688 c 0
 564.912026074 679.765545991 472.351756213 744.55078125 330.139648438 744.55078125 c 0
 140.444161396 744.55078125 86.6787109375 669.524432761 86.6787109375 537.595703125 c 0
573.950195312 413.349609375 m 1
 511.834518231 318.900920762 393.940553434 292.649380545 267 298.05078125 c 0
 81.955078125 301.827148438 3 398.717773438 3 545.915039062 c 0
 3 692.6171875 119.484375 802.459960938 326.0859375 802.459960938 c 0
 538.219726562 802.459960938 680.758068333 714.621228068 666 461.05078125 c 0
 655 272.05078125 581 32.0507812505 253 -0.4091796875 c 1
 253 61.05078125 l 1
 536.924637998 55.5830994506 570.177073078 334.434871218 573.950195312 413.349609375 c 1
EndSplineSet
EndChar

StartChar: at
Encoding: 64 64 180
Width: 714
Flags: W
HStem: 77 83<180.833 236.439> 191 85.415<247.131 355.218> 390.169 90.8311<247.131 354.995>
VStem: 0.0175781 97<232.631 418.393> 143.018 86.1475<295.198 372.366> 375.725 101.293<297.126 369.458> 386.018 84<440.658 485> 540.018 75<231.832 437.065>
LayerCount: 2
Fore
SplineSet
229.165039062 333.291992188 m 0xfd
 229.165039062 301.912109375 266.661132812 276.415039062 298.041992188 276.415039062 c 0
 329.421875 276.415039062 375.724609375 301.912109375 375.724609375 333.291992188 c 0
 375.724609375 364.672851562 329.421875 390.168945312 298.041992188 390.168945312 c 0
 266.661132812 390.168945312 229.165039062 364.672851562 229.165039062 333.291992188 c 0xfd
143.017578125 336 m 0
 143.017578125 416 208.017578125 481 288.017578125 481 c 0
 327.252929688 481 362.880859375 465.365234375 389.001953125 439.994140625 c 1
 388.03125 454.139648438 387.020507812 469.052734375 386.017578125 485 c 1
 470.017578125 485 l 1xfb
 477.017578125 226 l 2
 480.017578125 187 532.564453125 204.015625 540.017578125 322 c 1
 530.815655408 579.646819536 355.824408742 533.209267562 268.017578125 518 c 0
 143.616260031 496.452098559 94.2731816601 425.675048709 97.017578125 286 c 0
 98 236 151.36328125 179.458984375 241.017578125 160 c 1
 236.017578125 77 l 1
 71.8984375 90.1220703125 3.017578125 196 0.017578125 291 c 1
 -1.2490234375 428.935546875 67.017578125 572 257.017578125 608 c 1
 456.607421875 625.791992188 607 581 615.017578125 323 c 1
 615.578125 210.23828125 560.017578125 125 484.017578125 121 c 0
 428.059326125 118.054828842 390.017578125 193 393.017578125 226 c 0
 393.28125 229.659179688 393.5234375 233.267578125 393.744140625 236.831054688 c 1
 367.280273438 208.631835938 329.68359375 191 288.017578125 191 c 0
 208.017578125 191 143.017578125 256 143.017578125 336 c 0
EndSplineSet
Validated: 33
EndChar

StartChar: germandbls
Encoding: 223 223 181
Width: 776
Flags: W
HStem: 0 155.5<-0.0771484 34.1676 262.923 449.726>
LayerCount: 2
Fore
SplineSet
-0.0771484375 155.5 m 1
 -0.0771484375 0 l 1
 210 0 243 131 248.922851562 483.5 c 0
 251.91435473 667.386289146 468.879882812 656.669921875 477 537 c 1
 472 449 321.922851562 469 321.922851562 469 c 1
 320.922851562 322 l 1
 556.12229295 332.059401115 545.934273054 95.5620645254 262.922851562 158 c 1
 260.922851562 0 l 1
 731.922851562 -54 753.922851562 324 564.922851562 393 c 1
 711.922851562 436 649.922851562 798 407.922851562 804 c 1
 -96 800 179 185 -0.0771484375 155.5 c 1
EndSplineSet
Validated: 41
EndChar

StartChar: yen
Encoding: 165 165 183
Width: 846
Flags: W
LayerCount: 2
Fore
SplineSet
0 800 m 1
 320 394.5 l 1
 320 368 l 1
 126 368 l 1
 126 250 l 1
 320 250 l 1
 320 207 l 1
 124 207 l 1
 124 89 l 1
 320 89 l 1
 320 0 l 1
 466 0 l 1
 465.938091631 89 l 1
 656 89 l 1
 656 207 l 1
 465.856010872 207 l 1
 465.826100087 250 l 1
 658 250 l 1
 658 368 l 1
 465.744019328 368 l 1
 465.725585938 394.5 l 1
 466 394.5 l 1
 766 800 l 1
 601 800 l 1
 396 529.5 l 1
 172 800 l 1
 0 800 l 1
EndSplineSet
Validated: 9
EndChar

StartChar: logicalnot
Encoding: 172 172 184
Width: 734
Flags: W
HStem: 324 144<0 465>
VStem: 465 144<172 324>
LayerCount: 2
Fore
SplineSet
0 468 m 1
 609 468 l 1
 609 418 l 1
 609 324 l 1
 609 172 l 1
 465 172 l 1
 465 324 l 1
 0 324 l 1
 0 468 l 1
EndSplineSet
Validated: 1
EndChar

StartChar: registered
Encoding: 174 174 185
Width: 382
Flags: W
HStem: 475.29 18.0801<99.3298 185.157> 621.959 24.5605<115.94 136.462 151.156 170.832> 672.607 26.9678<115.94 167.165> 757.79 19.21<96.2777 186.566>
VStem: 0.31543 17.9346<577.509 674.216> 90.2949 25.6455<551.735 621.959 646.52 672.607 699.575 699.76> 168.855 26.1865<551.735 582.719> 265.12 16.8799<579.018 670.947>
LayerCount: 2
Fore
SplineSet
90.294921875 699.759765625 m 5
 115.940429688 699.759765625 l 5
 115.940429688 699.575195312 l 5
 151.69921875 699.575195312 l 6
 209.8515625 699.206054688 211.296875 623.067382812 151.15625 622.143554688 c 5
 173.008789062 619.001953125 194.861328125 579.825195312 195.041992188 551.735351562 c 5
 168.85546875 551.735351562 l 5
 166.092773438 573.015625 135.811523438 621.958984375 115.940429688 621.958984375 c 5
 115.940429688 551.735351562 l 5
 90.294921875 551.735351562 l 5
 90.294921875 699.759765625 l 5
115.940429688 646.51953125 m 5
 151.809570312 646.430664062 l 6
 179.3359375 646.853515625 178.42578125 672.349609375 151.809570312 672.517578125 c 6
 115.940429688 672.607421875 l 5
 115.940429688 646.51953125 l 5
18.25 625.580078125 m 0
 18.25 552.6953125 73.6376953125 493.370117188 141.685546875 493.370117188 c 0
 209.733398438 493.370117188 265.120117188 552.6953125 265.120117188 625.580078125 c 0
 265.120117188 698.46484375 209.733398438 757.790039062 141.685546875 757.790039062 c 0
 73.6376953125 757.790039062 18.25 698.46484375 18.25 625.580078125 c 0
0.3154296875 626.14453125 m 0
 0.3154296875 709.200195312 63.615234375 777 141.158203125 777 c 0
 218.700195312 777 282 709.200195312 282 626.14453125 c 0
 282 543.08984375 218.700195312 475.290039062 141.158203125 475.290039062 c 0
 63.615234375 475.290039062 0.3154296875 543.08984375 0.3154296875 626.14453125 c 0
EndSplineSet
Validated: 33
EndChar
